<svg width="732" height="398" viewBox="0 0 732 398" fill="none" xmlns="http://www.w3.org/2000/svg">
<rect width="732" height="398" fill="white"/>
<circle cx="75.5" cy="78.5" r="17.5" fill="#C4C4C4"/>
<circle cx="395.5" cy="78.5" r="17.5" fill="#C4C4C4"/>
<circle cx="636.5" cy="78.5" r="17.5" fill="#C4C4C4" fill-opacity="0.28"/>
<path d="M27.3301 7.40625L35.6973 28.2891L44.0645 7.40625H48.4414V33H45.0664V23.0332L45.3828 12.2754L36.9805 33H34.3965L26.0117 12.3281L26.3457 23.0332V33H22.9707V7.40625H27.3301ZM53.0293 23.3145C53.0293 21.4512 53.3926 19.7754 54.1191 18.2871C54.8574 16.7988 55.877 15.6504 57.1777 14.8418C58.4902 14.0332 59.9844 13.6289 61.6602 13.6289C64.25 13.6289 66.3418 14.5254 67.9355 16.3184C69.541 18.1113 70.3438 20.4961 70.3438 23.4727V23.7012C70.3438 25.5527 69.9863 27.2168 69.2715 28.6934C68.5684 30.1582 67.5547 31.3008 66.2305 32.1211C64.918 32.9414 63.4062 33.3516 61.6953 33.3516C59.1172 33.3516 57.0254 32.4551 55.4199 30.6621C53.8262 28.8691 53.0293 26.4961 53.0293 23.543V23.3145ZM56.2988 23.7012C56.2988 25.8105 56.7852 27.5039 57.7578 28.7812C58.7422 30.0586 60.0547 30.6973 61.6953 30.6973C63.3477 30.6973 64.6602 30.0527 65.6328 28.7637C66.6055 27.4629 67.0918 25.6465 67.0918 23.3145C67.0918 21.2285 66.5938 19.541 65.5977 18.252C64.6133 16.9512 63.3008 16.3008 61.6602 16.3008C60.0547 16.3008 58.7598 16.9395 57.7754 18.2168C56.791 19.4941 56.2988 21.3223 56.2988 23.7012ZM86.1641 31.1191C84.8984 32.6074 83.041 33.3516 80.5918 33.3516C78.5645 33.3516 77.0176 32.7656 75.9512 31.5938C74.8965 30.4102 74.3633 28.6641 74.3516 26.3555V13.9805H77.6035V26.2676C77.6035 29.1504 78.7754 30.5918 81.1191 30.5918C83.6035 30.5918 85.2559 29.666 86.0762 27.8145V13.9805H89.3281V33H86.2344L86.1641 31.1191ZM97.3613 13.9805L97.4668 16.3711C98.9199 14.543 100.818 13.6289 103.162 13.6289C107.182 13.6289 109.209 15.8965 109.244 20.4316V33H105.992V20.4141C105.98 19.043 105.664 18.0293 105.043 17.373C104.434 16.7168 103.479 16.3887 102.178 16.3887C101.123 16.3887 100.197 16.6699 99.4004 17.2324C98.6035 17.7949 97.9824 18.5332 97.5371 19.4473V33H94.2852V13.9805H97.3613ZM118.561 9.375V13.9805H122.111V16.4941H118.561V28.2891C118.561 29.0508 118.719 29.625 119.035 30.0117C119.352 30.3867 119.891 30.5742 120.652 30.5742C121.027 30.5742 121.543 30.5039 122.199 30.3633V33C121.344 33.2344 120.512 33.3516 119.703 33.3516C118.25 33.3516 117.154 32.9121 116.416 32.0332C115.678 31.1543 115.309 29.9062 115.309 28.2891V16.4941H111.846V13.9805H115.309V9.375H118.561Z" fill="black"/>
<path d="M354.988 7.40625V24.8086C354.977 27.2227 354.215 29.1973 352.703 30.7324C351.203 32.2676 349.164 33.1289 346.586 33.3164L345.689 33.3516C342.889 33.3516 340.656 32.5957 338.992 31.084C337.328 29.5723 336.484 27.4922 336.461 24.8438V7.40625H339.801V24.7383C339.801 26.5898 340.311 28.0312 341.33 29.0625C342.35 30.082 343.803 30.5918 345.689 30.5918C347.6 30.5918 349.059 30.082 350.066 29.0625C351.086 28.043 351.596 26.6074 351.596 24.7559V7.40625H354.988ZM375.871 23.7012C375.871 26.5957 375.209 28.9277 373.885 30.6973C372.561 32.4668 370.768 33.3516 368.506 33.3516C366.197 33.3516 364.381 32.6191 363.057 31.1543V40.3125H359.805V13.9805H362.775L362.934 16.0898C364.258 14.4492 366.098 13.6289 368.453 13.6289C370.738 13.6289 372.543 14.4902 373.867 16.2129C375.203 17.9355 375.871 20.332 375.871 23.4023V23.7012ZM372.619 23.332C372.619 21.1875 372.162 19.4941 371.248 18.252C370.334 17.0098 369.08 16.3887 367.486 16.3887C365.518 16.3887 364.041 17.2617 363.057 19.0078V28.0957C364.029 29.8301 365.518 30.6973 367.521 30.6973C369.08 30.6973 370.316 30.082 371.23 28.8516C372.156 27.6094 372.619 25.7695 372.619 23.332ZM379.229 23.332C379.229 20.4141 379.92 18.0703 381.303 16.3008C382.686 14.5195 384.496 13.6289 386.734 13.6289C388.961 13.6289 390.725 14.3906 392.025 15.9141V6H395.277V33H392.289L392.131 30.9609C390.83 32.5547 389.02 33.3516 386.699 33.3516C384.496 33.3516 382.697 32.4492 381.303 30.6445C379.92 28.8398 379.229 26.4844 379.229 23.5781V23.332ZM382.48 23.7012C382.48 25.8574 382.926 27.5449 383.816 28.7637C384.707 29.9824 385.938 30.5918 387.508 30.5918C389.57 30.5918 391.076 29.666 392.025 27.8145V19.0781C391.053 17.2852 389.559 16.3887 387.543 16.3887C385.949 16.3887 384.707 17.0039 383.816 18.2344C382.926 19.4648 382.48 21.2871 382.48 23.7012ZM412.082 33C411.895 32.625 411.742 31.957 411.625 30.9961C410.113 32.5664 408.309 33.3516 406.211 33.3516C404.336 33.3516 402.795 32.8242 401.588 31.7695C400.393 30.7031 399.795 29.3555 399.795 27.7266C399.795 25.7461 400.545 24.2109 402.045 23.1211C403.557 22.0195 405.678 21.4688 408.408 21.4688H411.572V19.9746C411.572 18.8379 411.232 17.9355 410.553 17.2676C409.873 16.5879 408.871 16.248 407.547 16.248C406.387 16.248 405.414 16.541 404.629 17.127C403.844 17.7129 403.451 18.4219 403.451 19.2539H400.182C400.182 18.3047 400.516 17.3906 401.184 16.5117C401.863 15.6211 402.777 14.918 403.926 14.4023C405.086 13.8867 406.357 13.6289 407.74 13.6289C409.932 13.6289 411.648 14.1797 412.891 15.2812C414.133 16.3711 414.777 17.877 414.824 19.7988V28.5527C414.824 30.2988 415.047 31.6875 415.492 32.7188V33H412.082ZM406.686 30.5215C407.705 30.5215 408.672 30.2578 409.586 29.7305C410.5 29.2031 411.162 28.5176 411.572 27.6738V23.7715H409.023C405.039 23.7715 403.047 24.9375 403.047 27.2695C403.047 28.2891 403.387 29.0859 404.066 29.6602C404.746 30.2344 405.619 30.5215 406.686 30.5215ZM424.334 9.375V13.9805H427.885V16.4941H424.334V28.2891C424.334 29.0508 424.492 29.625 424.809 30.0117C425.125 30.3867 425.664 30.5742 426.426 30.5742C426.801 30.5742 427.316 30.5039 427.973 30.3633V33C427.117 33.2344 426.285 33.3516 425.477 33.3516C424.023 33.3516 422.928 32.9121 422.189 32.0332C421.451 31.1543 421.082 29.9062 421.082 28.2891V16.4941H417.619V13.9805H421.082V9.375H424.334ZM439.592 33.3516C437.014 33.3516 434.916 32.5078 433.299 30.8203C431.682 29.1211 430.873 26.8535 430.873 24.0176V23.4199C430.873 21.5332 431.23 19.8516 431.945 18.375C432.672 16.8867 433.68 15.7266 434.969 14.8945C436.27 14.0508 437.676 13.6289 439.188 13.6289C441.66 13.6289 443.582 14.4434 444.953 16.0723C446.324 17.7012 447.01 20.0332 447.01 23.0684V24.4219H434.125C434.172 26.2969 434.717 27.8145 435.76 28.9746C436.814 30.123 438.15 30.6973 439.768 30.6973C440.916 30.6973 441.889 30.4629 442.686 29.9941C443.482 29.5254 444.18 28.9043 444.777 28.1309L446.764 29.6777C445.17 32.127 442.779 33.3516 439.592 33.3516ZM439.188 16.3008C437.875 16.3008 436.773 16.7812 435.883 17.7422C434.992 18.6914 434.441 20.0273 434.23 21.75H443.758V21.5039C443.664 19.8516 443.219 18.5742 442.422 17.6719C441.625 16.7578 440.547 16.3008 439.188 16.3008Z" fill="black"/>
<path d="M576.988 7.40625V24.8086C576.977 27.2227 576.215 29.1973 574.703 30.7324C573.203 32.2676 571.164 33.1289 568.586 33.3164L567.689 33.3516C564.889 33.3516 562.656 32.5957 560.992 31.084C559.328 29.5723 558.484 27.4922 558.461 24.8438V7.40625H561.801V24.7383C561.801 26.5898 562.311 28.0312 563.33 29.0625C564.35 30.082 565.803 30.5918 567.689 30.5918C569.6 30.5918 571.059 30.082 572.066 29.0625C573.086 28.043 573.596 26.6074 573.596 24.7559V7.40625H576.988ZM584.881 13.9805L584.986 16.3711C586.439 14.543 588.338 13.6289 590.682 13.6289C594.701 13.6289 596.729 15.8965 596.764 20.4316V33H593.512V20.4141C593.5 19.043 593.184 18.0293 592.562 17.373C591.953 16.7168 590.998 16.3887 589.697 16.3887C588.643 16.3887 587.717 16.6699 586.92 17.2324C586.123 17.7949 585.502 18.5332 585.057 19.4473V33H581.805V13.9805H584.881ZM604.727 13.9805L604.814 16.0898C606.209 14.4492 608.09 13.6289 610.457 13.6289C613.117 13.6289 614.928 14.6484 615.889 16.6875C616.521 15.7734 617.342 15.0352 618.35 14.4727C619.369 13.9102 620.57 13.6289 621.953 13.6289C626.125 13.6289 628.246 15.8379 628.316 20.2559V33H625.064V20.4492C625.064 19.0898 624.754 18.0762 624.133 17.4082C623.512 16.7285 622.469 16.3887 621.004 16.3887C619.797 16.3887 618.795 16.752 617.998 17.4785C617.201 18.1934 616.738 19.1602 616.609 20.3789V33H613.34V20.5371C613.34 17.7715 611.986 16.3887 609.279 16.3887C607.146 16.3887 605.688 17.2969 604.902 19.1133V33H601.65V13.9805H604.727ZM632.377 23.3145C632.377 21.4512 632.74 19.7754 633.467 18.2871C634.205 16.7988 635.225 15.6504 636.525 14.8418C637.838 14.0332 639.332 13.6289 641.008 13.6289C643.598 13.6289 645.689 14.5254 647.283 16.3184C648.889 18.1113 649.691 20.4961 649.691 23.4727V23.7012C649.691 25.5527 649.334 27.2168 648.619 28.6934C647.916 30.1582 646.902 31.3008 645.578 32.1211C644.266 32.9414 642.754 33.3516 641.043 33.3516C638.465 33.3516 636.373 32.4551 634.768 30.6621C633.174 28.8691 632.377 26.4961 632.377 23.543V23.3145ZM635.646 23.7012C635.646 25.8105 636.133 27.5039 637.105 28.7812C638.09 30.0586 639.402 30.6973 641.043 30.6973C642.695 30.6973 644.008 30.0527 644.98 28.7637C645.953 27.4629 646.439 25.6465 646.439 23.3145C646.439 21.2285 645.941 19.541 644.945 18.252C643.961 16.9512 642.648 16.3008 641.008 16.3008C639.402 16.3008 638.107 16.9395 637.123 18.2168C636.139 19.4941 635.646 21.3223 635.646 23.7012ZM665.512 31.1191C664.246 32.6074 662.389 33.3516 659.939 33.3516C657.912 33.3516 656.365 32.7656 655.299 31.5938C654.244 30.4102 653.711 28.6641 653.699 26.3555V13.9805H656.951V26.2676C656.951 29.1504 658.123 30.5918 660.467 30.5918C662.951 30.5918 664.604 29.666 665.424 27.8145V13.9805H668.676V33H665.582L665.512 31.1191ZM676.709 13.9805L676.814 16.3711C678.268 14.543 680.166 13.6289 682.51 13.6289C686.529 13.6289 688.557 15.8965 688.592 20.4316V33H685.34V20.4141C685.328 19.043 685.012 18.0293 684.391 17.373C683.781 16.7168 682.826 16.3887 681.525 16.3887C680.471 16.3887 679.545 16.6699 678.748 17.2324C677.951 17.7949 677.33 18.5332 676.885 19.4473V33H673.633V13.9805H676.709ZM697.908 9.375V13.9805H701.459V16.4941H697.908V28.2891C697.908 29.0508 698.066 29.625 698.383 30.0117C698.699 30.3867 699.238 30.5742 700 30.5742C700.375 30.5742 700.891 30.5039 701.547 30.3633V33C700.691 33.2344 699.859 33.3516 699.051 33.3516C697.598 33.3516 696.502 32.9121 695.764 32.0332C695.025 31.1543 694.656 29.9062 694.656 28.2891V16.4941H691.193V13.9805H694.656V9.375H697.908Z" fill="black"/>
<line x1="102" y1="78.5" x2="369" y2="78.5" stroke="black"/>
<line x1="422" y1="77.5" x2="606" y2="77.5" stroke="black"/>
<path d="M35.888 210.12C35.888 211.304 35.52 212.288 34.784 213.072C34.048 213.84 33.072 214.376 31.856 214.68L36.776 222H34.28L29.744 214.92H27.512V222H25.448V205.464H29.672C31.72 205.464 33.264 205.856 34.304 206.64C35.36 207.424 35.888 208.584 35.888 210.12ZM33.68 210.12C33.68 209.064 33.376 208.304 32.768 207.84C32.16 207.376 31.208 207.144 29.912 207.144H27.512V213.288H29.936C31.168 213.288 32.096 213.04 32.72 212.544C33.36 212.032 33.68 211.224 33.68 210.12ZM41.3986 216.384C41.4466 217.776 41.8066 218.824 42.4786 219.528C43.1666 220.232 44.0306 220.584 45.0706 220.584C45.6946 220.584 46.2626 220.496 46.7746 220.32C47.3026 220.128 47.8626 219.84 48.4546 219.456L49.3906 220.8C48.7986 221.264 48.1186 221.624 47.3506 221.88C46.5986 222.136 45.8386 222.264 45.0706 222.264C43.2466 222.264 41.8226 221.672 40.7986 220.488C39.7906 219.288 39.2866 217.688 39.2866 215.688C39.2866 214.424 39.5106 213.296 39.9586 212.304C40.4066 211.296 41.0466 210.512 41.8786 209.952C42.7106 209.376 43.6786 209.088 44.7826 209.088C46.3826 209.088 47.6386 209.648 48.5506 210.768C49.4786 211.872 49.9426 213.384 49.9426 215.304C49.9426 215.672 49.9266 216.032 49.8946 216.384H41.3986ZM44.8066 210.744C43.8306 210.744 43.0386 211.096 42.4306 211.8C41.8226 212.488 41.4786 213.504 41.3986 214.848H47.9746C47.9586 213.52 47.6706 212.504 47.1106 211.8C46.5506 211.096 45.7826 210.744 44.8066 210.744ZM63.2533 219.24C63.2533 219.736 63.3333 220.104 63.4933 220.344C63.6533 220.568 63.9173 220.736 64.2853 220.848L63.7812 222.288C62.5493 222.128 61.7813 221.528 61.4773 220.488C61.0293 221.064 60.4613 221.504 59.7733 221.808C59.1013 222.112 58.3493 222.264 57.5173 222.264C56.2533 222.264 55.2533 221.912 54.5173 221.208C53.7973 220.504 53.4373 219.56 53.4373 218.376C53.4373 217.08 53.9413 216.08 54.9492 215.376C55.9733 214.672 57.4373 214.32 59.3413 214.32H61.2133V213.288C61.2133 212.392 60.9573 211.752 60.4453 211.368C59.9333 210.968 59.1893 210.768 58.2133 210.768C57.2533 210.768 56.1573 210.984 54.9253 211.416L54.3733 209.88C55.8613 209.352 57.2453 209.088 58.5253 209.088C60.0613 209.088 61.2293 209.448 62.0293 210.168C62.8453 210.888 63.2533 211.888 63.2533 213.168V219.24ZM58.0213 220.752C58.6453 220.752 59.2373 220.592 59.7973 220.272C60.3733 219.952 60.8453 219.512 61.2133 218.952V215.712H59.3893C58.0453 215.712 57.0773 215.936 56.4853 216.384C55.8933 216.832 55.5973 217.488 55.5973 218.352C55.5973 219.952 56.4053 220.752 58.0213 220.752ZM74.3079 220.536C75.4119 220.536 76.5079 220.168 77.5959 219.432L78.5559 220.752C78.0279 221.216 77.3719 221.584 76.5879 221.856C75.8039 222.128 75.0439 222.264 74.3079 222.264C72.4359 222.264 70.9719 221.68 69.9159 220.512C68.8759 219.328 68.3559 217.736 68.3559 215.736C68.3559 214.472 68.5879 213.336 69.0519 212.328C69.5319 211.32 70.2199 210.528 71.1159 209.952C72.0119 209.376 73.0759 209.088 74.3079 209.088C75.9399 209.088 77.3479 209.584 78.5319 210.576L77.5479 211.896C76.4439 211.16 75.3559 210.792 74.2839 210.792C73.1479 210.792 72.2359 211.216 71.5479 212.064C70.8759 212.896 70.5399 214.12 70.5399 215.736C70.5399 217.352 70.8759 218.56 71.5479 219.36C72.2359 220.144 73.1559 220.536 74.3079 220.536ZM93.0185 221.352C92.5865 221.64 92.0585 221.864 91.4345 222.024C90.8265 222.184 90.2185 222.264 89.6105 222.264C88.2825 222.264 87.2425 221.92 86.4905 221.232C85.7385 220.528 85.3625 219.608 85.3625 218.472V210.936H82.4585V209.352H85.3625V206.496L87.3785 206.256V209.352H91.7705L91.5065 210.936H87.3785V218.448C87.3785 219.168 87.5705 219.704 87.9545 220.056C88.3385 220.408 88.9545 220.584 89.8025 220.584C90.6665 220.584 91.4745 220.384 92.2265 219.984L93.0185 221.352ZM100.017 220.152C100.017 219.56 100.217 219.064 100.617 218.664C101.033 218.248 101.537 218.04 102.129 218.04C102.737 218.04 103.241 218.248 103.641 218.664C104.041 219.064 104.241 219.56 104.241 220.152C104.241 220.76 104.041 221.264 103.641 221.664C103.241 222.064 102.737 222.264 102.129 222.264C101.537 222.264 101.033 222.064 100.617 221.664C100.217 221.248 100.017 220.744 100.017 220.152ZM113.76 218.328C113.76 219.144 113.928 219.744 114.264 220.128C114.616 220.496 115.16 220.68 115.896 220.68C116.568 220.68 117.216 220.488 117.84 220.104C118.464 219.72 118.96 219.24 119.328 218.664V209.352H121.344V222H119.616L119.448 220.296C118.952 220.92 118.336 221.408 117.6 221.76C116.88 222.096 116.144 222.264 115.392 222.264C114.192 222.264 113.28 221.944 112.656 221.304C112.048 220.664 111.744 219.744 111.744 218.544V209.352H113.76V218.328ZM130.454 220.608C131.414 220.608 132.174 220.424 132.734 220.056C133.294 219.688 133.574 219.2 133.574 218.592C133.574 218.176 133.502 217.84 133.358 217.584C133.214 217.312 132.926 217.072 132.494 216.864C132.062 216.64 131.406 216.416 130.526 216.192C129.054 215.824 127.966 215.384 127.262 214.872C126.558 214.344 126.206 213.568 126.206 212.544C126.206 211.488 126.646 210.648 127.526 210.024C128.406 209.4 129.566 209.088 131.006 209.088C132.766 209.088 134.302 209.552 135.614 210.48L134.702 211.872C134.174 211.504 133.622 211.224 133.046 211.032C132.47 210.824 131.806 210.72 131.054 210.72C129.23 210.72 128.318 211.272 128.318 212.376C128.318 212.76 128.414 213.072 128.606 213.312C128.814 213.552 129.142 213.768 129.59 213.96C130.054 214.136 130.742 214.352 131.654 214.608C133.03 214.976 134.054 215.448 134.726 216.024C135.414 216.584 135.758 217.408 135.758 218.496C135.758 219.76 135.246 220.704 134.222 221.328C133.198 221.952 131.942 222.264 130.454 222.264C128.47 222.264 126.822 221.696 125.51 220.56L126.638 219.24C127.15 219.656 127.734 219.992 128.39 220.248C129.046 220.488 129.734 220.608 130.454 220.608ZM142.133 216.384C142.181 217.776 142.541 218.824 143.213 219.528C143.901 220.232 144.765 220.584 145.805 220.584C146.429 220.584 146.997 220.496 147.509 220.32C148.037 220.128 148.597 219.84 149.189 219.456L150.125 220.8C149.533 221.264 148.853 221.624 148.085 221.88C147.333 222.136 146.573 222.264 145.805 222.264C143.981 222.264 142.557 221.672 141.533 220.488C140.525 219.288 140.021 217.688 140.021 215.688C140.021 214.424 140.245 213.296 140.693 212.304C141.141 211.296 141.781 210.512 142.613 209.952C143.445 209.376 144.413 209.088 145.517 209.088C147.117 209.088 148.373 209.648 149.285 210.768C150.213 211.872 150.677 213.384 150.677 215.304C150.677 215.672 150.661 216.032 150.629 216.384H142.133ZM145.541 210.744C144.565 210.744 143.773 211.096 143.165 211.8C142.557 212.488 142.213 213.504 142.133 214.848H148.709C148.693 213.52 148.405 212.504 147.845 211.8C147.285 211.096 146.517 210.744 145.541 210.744ZM157.604 212.76H163.748V214.464H157.604V220.32H165.14V222H155.54V205.464H164.924L164.684 207.192H157.604V212.76ZM176.77 204.024C177.97 204.024 179.114 204.248 180.202 204.696L179.554 206.208C178.754 205.856 177.85 205.68 176.842 205.68C175.082 205.68 174.202 206.376 174.202 207.768V210.336H178.474L178.258 211.944H174.202V222H172.162V211.944H169.162V210.336H172.162V207.816C172.162 206.68 172.594 205.768 173.458 205.08C174.338 204.376 175.442 204.024 176.77 204.024ZM191.161 204.024C192.361 204.024 193.505 204.248 194.593 204.696L193.945 206.208C193.145 205.856 192.241 205.68 191.233 205.68C189.473 205.68 188.593 206.376 188.593 207.768V210.336H192.865L192.649 211.944H188.593V222H186.553V211.944H183.553V210.336H186.553V207.816C186.553 206.68 186.985 205.768 187.849 205.08C188.729 204.376 189.833 204.024 191.161 204.024ZM199.696 216.384C199.744 217.776 200.104 218.824 200.776 219.528C201.464 220.232 202.328 220.584 203.368 220.584C203.992 220.584 204.56 220.496 205.072 220.32C205.6 220.128 206.16 219.84 206.752 219.456L207.688 220.8C207.096 221.264 206.416 221.624 205.648 221.88C204.896 222.136 204.136 222.264 203.368 222.264C201.544 222.264 200.12 221.672 199.096 220.488C198.088 219.288 197.584 217.688 197.584 215.688C197.584 214.424 197.808 213.296 198.256 212.304C198.704 211.296 199.344 210.512 200.176 209.952C201.008 209.376 201.976 209.088 203.08 209.088C204.68 209.088 205.936 209.648 206.848 210.768C207.776 211.872 208.24 213.384 208.24 215.304C208.24 215.672 208.224 216.032 208.192 216.384H199.696ZM203.104 210.744C202.128 210.744 201.336 211.096 200.728 211.8C200.12 212.488 199.776 213.504 199.696 214.848H206.272C206.256 213.52 205.968 212.504 205.408 211.8C204.848 211.096 204.08 210.744 203.104 210.744ZM218.214 220.536C219.318 220.536 220.414 220.168 221.502 219.432L222.462 220.752C221.934 221.216 221.278 221.584 220.494 221.856C219.71 222.128 218.95 222.264 218.214 222.264C216.342 222.264 214.878 221.68 213.822 220.512C212.782 219.328 212.262 217.736 212.262 215.736C212.262 214.472 212.494 213.336 212.958 212.328C213.438 211.32 214.126 210.528 215.022 209.952C215.918 209.376 216.982 209.088 218.214 209.088C219.846 209.088 221.254 209.584 222.438 210.576L221.454 211.896C220.35 211.16 219.262 210.792 218.19 210.792C217.054 210.792 216.142 211.216 215.454 212.064C214.782 212.896 214.446 214.12 214.446 215.736C214.446 217.352 214.782 218.56 215.454 219.36C216.142 220.144 217.062 220.536 218.214 220.536ZM236.925 221.352C236.493 221.64 235.965 221.864 235.341 222.024C234.733 222.184 234.125 222.264 233.517 222.264C232.189 222.264 231.149 221.92 230.397 221.232C229.645 220.528 229.269 219.608 229.269 218.472V210.936H226.365V209.352H229.269V206.496L231.285 206.256V209.352H235.677L235.413 210.936H231.285V218.448C231.285 219.168 231.477 219.704 231.861 220.056C232.245 220.408 232.861 220.584 233.709 220.584C234.573 220.584 235.381 220.384 236.133 219.984L236.925 221.352ZM243.971 213.6C243.971 215.232 244.155 216.656 244.523 217.872C244.891 219.072 245.435 220.168 246.155 221.16C246.891 222.136 247.867 223.168 249.083 224.256L248.051 225.36C246.643 224.224 245.491 223.104 244.595 222C243.715 220.896 243.035 219.664 242.555 218.304C242.091 216.944 241.859 215.376 241.859 213.6C241.859 211.824 242.091 210.256 242.555 208.896C243.035 207.536 243.715 206.304 244.595 205.2C245.491 204.096 246.643 202.976 248.051 201.84L249.083 202.944C247.851 204.032 246.867 205.064 246.131 206.04C245.411 207.016 244.867 208.112 244.499 209.328C244.147 210.528 243.971 211.952 243.971 213.6ZM258.362 213.6C258.362 215.232 258.546 216.656 258.914 217.872C259.282 219.072 259.826 220.168 260.546 221.16C261.282 222.136 262.258 223.168 263.474 224.256L262.442 225.36C261.034 224.224 259.882 223.104 258.986 222C258.106 220.896 257.426 219.664 256.946 218.304C256.482 216.944 256.25 215.376 256.25 213.6C256.25 211.824 256.482 210.256 256.946 208.896C257.426 207.536 258.106 206.304 258.986 205.2C259.882 204.096 261.034 202.976 262.442 201.84L263.474 202.944C262.242 204.032 261.258 205.064 260.522 206.04C259.802 207.016 259.258 208.112 258.89 209.328C258.538 210.528 258.362 211.952 258.362 213.6ZM276.929 213.6C276.929 211.952 276.745 210.528 276.377 209.328C276.025 208.112 275.481 207.016 274.745 206.04C274.025 205.064 273.049 204.032 271.817 202.944L272.849 201.84C274.257 202.976 275.401 204.096 276.281 205.2C277.177 206.304 277.857 207.536 278.321 208.896C278.801 210.256 279.041 211.824 279.041 213.6C279.041 215.376 278.801 216.944 278.321 218.304C277.857 219.664 277.177 220.896 276.281 222C275.401 223.104 274.257 224.224 272.849 225.36L271.817 224.256C273.033 223.168 274.001 222.136 274.721 221.16C275.457 220.168 276.009 219.072 276.377 217.872C276.745 216.656 276.929 215.232 276.929 213.6ZM308.278 213.12H298.966V211.392H308.278V213.12ZM308.278 217.68H298.966V215.952H308.278V217.68ZM323.125 213.456V215.52L314.005 221.208L312.925 219.72L321.397 214.488L312.925 209.28L313.909 207.744L323.125 213.456ZM350.418 203.544C348.29 203.544 347.29 204.184 347.418 205.464L347.898 210.384C347.914 210.528 347.922 210.736 347.922 211.008C347.922 211.776 347.738 212.368 347.37 212.784C347.002 213.184 346.434 213.456 345.666 213.6C346.45 213.744 347.018 214.016 347.37 214.416C347.738 214.8 347.922 215.384 347.922 216.168C347.922 216.44 347.914 216.656 347.898 216.816L347.418 221.736C347.354 222.44 347.594 222.936 348.138 223.224C348.682 223.512 349.442 223.656 350.418 223.656V225.264C348.978 225.264 347.802 225.016 346.89 224.52C345.978 224.024 345.522 223.184 345.522 222C345.522 221.792 345.53 221.632 345.546 221.52L346.05 216.96C346.066 216.848 346.074 216.688 346.074 216.48C346.074 215.776 345.81 215.256 345.282 214.92C344.754 214.584 343.794 214.416 342.402 214.416V212.784C343.794 212.784 344.754 212.624 345.282 212.304C345.81 211.968 346.074 211.448 346.074 210.744C346.074 210.552 346.066 210.4 346.05 210.288L345.546 205.68C345.53 205.568 345.522 205.408 345.522 205.2C345.522 204.016 345.978 203.176 346.89 202.68C347.802 202.184 348.978 201.936 350.418 201.936V203.544ZM62.7253 267.088C63.2373 267.088 63.8293 267.176 64.5013 267.352L64.2133 271.648H62.5813V268.936H62.4613C60.5093 268.936 59.1253 270.328 58.3093 273.112V278.44H60.8773V280H54.3013V278.44H56.2933V268.912H54.3013V267.352H57.8053L58.1893 270.352C58.7013 269.264 59.3093 268.448 60.0133 267.904C60.7333 267.36 61.6373 267.088 62.7253 267.088ZM70.1799 274.384C70.2279 275.776 70.5879 276.824 71.2599 277.528C71.9479 278.232 72.8119 278.584 73.8519 278.584C74.4759 278.584 75.0439 278.496 75.5559 278.32C76.0839 278.128 76.6439 277.84 77.2359 277.456L78.1719 278.8C77.5799 279.264 76.8999 279.624 76.1319 279.88C75.3799 280.136 74.6199 280.264 73.8519 280.264C72.0279 280.264 70.6039 279.672 69.5799 278.488C68.5719 277.288 68.0679 275.688 68.0679 273.688C68.0679 272.424 68.2919 271.296 68.7399 270.304C69.1879 269.296 69.8279 268.512 70.6599 267.952C71.4919 267.376 72.4599 267.088 73.5639 267.088C75.1639 267.088 76.4199 267.648 77.3319 268.768C78.2599 269.872 78.7239 271.384 78.7239 273.304C78.7239 273.672 78.7079 274.032 78.6759 274.384H70.1799ZM73.5879 268.744C72.6119 268.744 71.8199 269.096 71.2119 269.8C70.6039 270.488 70.2599 271.504 70.1799 272.848H76.7559C76.7399 271.52 76.4519 270.504 75.8919 269.8C75.3319 269.096 74.5639 268.744 73.5879 268.744ZM93.0185 279.352C92.5865 279.64 92.0585 279.864 91.4345 280.024C90.8265 280.184 90.2185 280.264 89.6105 280.264C88.2825 280.264 87.2425 279.92 86.4905 279.232C85.7385 278.528 85.3625 277.608 85.3625 276.472V268.936H82.4585V267.352H85.3625V264.496L87.3785 264.256V267.352H91.7705L91.5065 268.936H87.3785V276.448C87.3785 277.168 87.5705 277.704 87.9545 278.056C88.3385 278.408 88.9545 278.584 89.8025 278.584C90.6665 278.584 91.4745 278.384 92.2265 277.984L93.0185 279.352ZM99.3691 276.328C99.3691 277.144 99.5371 277.744 99.8731 278.128C100.225 278.496 100.769 278.68 101.505 278.68C102.177 278.68 102.825 278.488 103.449 278.104C104.073 277.72 104.569 277.24 104.937 276.664V267.352H106.953V280H105.225L105.057 278.296C104.561 278.92 103.945 279.408 103.209 279.76C102.489 280.096 101.753 280.264 101.001 280.264C99.8011 280.264 98.8891 279.944 98.2651 279.304C97.6571 278.664 97.3531 277.744 97.3531 276.544V267.352H99.3691V276.328ZM120.288 267.088C120.8 267.088 121.392 267.176 122.064 267.352L121.776 271.648H120.144V268.936H120.024C118.072 268.936 116.688 270.328 115.872 273.112V278.44H118.44V280H111.864V278.44H113.856V268.912H111.864V267.352H115.368L115.752 270.352C116.264 269.264 116.872 268.448 117.576 267.904C118.296 267.36 119.2 267.088 120.288 267.088ZM126.134 267.352H127.862L128.03 269.128C128.526 268.488 129.15 267.992 129.902 267.64C130.67 267.272 131.438 267.088 132.206 267.088C134.574 267.088 135.758 268.336 135.758 270.832V280H133.742V272.32C133.742 271.376 133.686 270.656 133.574 270.16C133.478 269.664 133.278 269.296 132.974 269.056C132.67 268.816 132.206 268.696 131.582 268.696C130.894 268.696 130.246 268.904 129.638 269.32C129.03 269.736 128.534 270.232 128.15 270.808V280H126.134V267.352ZM157.628 271.6C157.628 273.232 157.812 274.656 158.18 275.872C158.548 277.072 159.092 278.168 159.812 279.16C160.548 280.136 161.524 281.168 162.74 282.256L161.708 283.36C160.3 282.224 159.148 281.104 158.252 280C157.372 278.896 156.692 277.664 156.212 276.304C155.748 274.944 155.516 273.376 155.516 271.6C155.516 269.824 155.748 268.256 156.212 266.896C156.692 265.536 157.372 264.304 158.252 263.2C159.148 262.096 160.3 260.976 161.708 259.84L162.74 260.944C161.508 262.032 160.524 263.064 159.788 264.04C159.068 265.016 158.524 266.112 158.156 267.328C157.804 268.528 157.628 269.952 157.628 271.6ZM176.194 271.6C176.194 269.952 176.01 268.528 175.642 267.328C175.29 266.112 174.746 265.016 174.01 264.04C173.29 263.064 172.314 262.032 171.082 260.944L172.114 259.84C173.522 260.976 174.666 262.096 175.546 263.2C176.442 264.304 177.122 265.536 177.586 266.896C178.066 268.256 178.306 269.824 178.306 271.6C178.306 273.376 178.066 274.944 177.586 276.304C177.122 277.664 176.442 278.896 175.546 280C174.666 281.104 173.522 282.224 172.114 283.36L171.082 282.256C172.298 281.168 173.266 280.136 173.986 279.16C174.722 278.168 175.274 277.072 175.642 275.872C176.01 274.656 176.194 273.232 176.194 271.6ZM207.544 271.12H198.232V269.392H207.544V271.12ZM207.544 275.68H198.232V273.952H207.544V275.68ZM222.39 271.456V273.52L213.27 279.208L212.19 277.72L220.662 272.488L212.19 267.28L213.174 265.744L222.39 271.456ZM249.683 261.544C247.555 261.544 246.555 262.184 246.683 263.464L247.163 268.384C247.179 268.528 247.187 268.736 247.187 269.008C247.187 269.776 247.003 270.368 246.635 270.784C246.267 271.184 245.699 271.456 244.931 271.6C245.715 271.744 246.283 272.016 246.635 272.416C247.003 272.8 247.187 273.384 247.187 274.168C247.187 274.44 247.179 274.656 247.163 274.816L246.683 279.736C246.619 280.44 246.859 280.936 247.403 281.224C247.947 281.512 248.707 281.656 249.683 281.656V283.264C248.243 283.264 247.067 283.016 246.155 282.52C245.243 282.024 244.787 281.184 244.787 280C244.787 279.792 244.795 279.632 244.811 279.52L245.315 274.96C245.331 274.848 245.339 274.688 245.339 274.48C245.339 273.776 245.075 273.256 244.547 272.92C244.019 272.584 243.059 272.416 241.667 272.416V270.784C243.059 270.784 244.019 270.624 244.547 270.304C245.075 269.968 245.339 269.448 245.339 268.744C245.339 268.552 245.331 268.4 245.315 268.288L244.811 263.68C244.795 263.568 244.787 263.408 244.787 263.2C244.787 262.016 245.243 261.176 246.155 260.68C247.067 260.184 248.243 259.936 249.683 259.936V261.544ZM55.3573 317.936C56.7973 317.936 57.9733 318.184 58.8853 318.68C59.7973 319.176 60.2533 320.016 60.2533 321.2C60.2533 321.408 60.2453 321.568 60.2293 321.68L59.7253 326.288C59.7093 326.368 59.7013 326.488 59.7013 326.648C59.7013 327.368 59.9813 327.904 60.5413 328.256C61.1173 328.608 62.0613 328.784 63.3733 328.784V330.416C62.0453 330.416 61.1013 330.592 60.5413 330.944C59.9813 331.296 59.7013 331.84 59.7013 332.576C59.7013 332.736 59.7093 332.864 59.7253 332.96L60.2293 337.52C60.2453 337.632 60.2533 337.792 60.2533 338C60.2533 339.184 59.7973 340.024 58.8853 340.52C57.9733 341.016 56.7973 341.264 55.3573 341.264V339.656C56.3333 339.656 57.0933 339.512 57.6373 339.224C58.1813 338.936 58.4213 338.44 58.3573 337.736L57.8773 332.816C57.8453 332.496 57.8293 332.28 57.8293 332.168C57.8293 331.368 58.0293 330.776 58.4293 330.392C58.8293 330.008 59.4773 329.752 60.3733 329.624C59.5093 329.464 58.8693 329.184 58.4533 328.784C58.0533 328.368 57.8533 327.768 57.8533 326.984C57.8533 326.728 57.8613 326.528 57.8773 326.384L58.3573 321.464C58.4853 320.184 57.4853 319.544 55.3573 319.544V317.936ZM26.576 346.936C28.016 346.936 29.192 347.184 30.104 347.68C31.016 348.176 31.472 349.016 31.472 350.2C31.472 350.408 31.464 350.568 31.448 350.68L30.944 355.288C30.928 355.368 30.92 355.488 30.92 355.648C30.92 356.368 31.2 356.904 31.76 357.256C32.336 357.608 33.28 357.784 34.592 357.784V359.416C33.264 359.416 32.32 359.592 31.76 359.944C31.2 360.296 30.92 360.84 30.92 361.576C30.92 361.736 30.928 361.864 30.944 361.96L31.448 366.52C31.464 366.632 31.472 366.792 31.472 367C31.472 368.184 31.016 369.024 30.104 369.52C29.192 370.016 28.016 370.264 26.576 370.264V368.656C27.552 368.656 28.312 368.512 28.856 368.224C29.4 367.936 29.64 367.44 29.576 366.736L29.096 361.816C29.064 361.496 29.048 361.28 29.048 361.168C29.048 360.368 29.248 359.776 29.648 359.392C30.048 359.008 30.696 358.752 31.592 358.624C30.728 358.464 30.088 358.184 29.672 357.784C29.272 357.368 29.072 356.768 29.072 355.984C29.072 355.728 29.08 355.528 29.096 355.384L29.576 350.464C29.704 349.184 28.704 348.544 26.576 348.544V346.936ZM44.5906 362.056C45.3426 362.056 45.9666 362.304 46.4626 362.8C46.9586 363.296 47.2066 363.912 47.2066 364.648C47.2066 365.096 47.1346 365.544 46.9906 365.992C46.8466 366.424 46.5746 367.08 46.1746 367.96L44.4466 371.872H41.9026L43.1266 366.784C42.7746 366.56 42.4946 366.264 42.2866 365.896C42.0946 365.512 41.9986 365.088 41.9986 364.624C41.9986 363.904 42.2466 363.296 42.7426 362.8C43.2386 362.304 43.8546 362.056 44.5906 362.056ZM69.9159 347.248H77.3079V350.08H73.4919V367.144H77.3079V369.952H69.9159V347.248ZM91.2185 369.952H83.8265V367.12H87.6425V350.08H83.8265V347.248H91.2185V369.952ZM104.241 358.6C104.241 356.952 104.057 355.528 103.689 354.328C103.337 353.112 102.793 352.016 102.057 351.04C101.337 350.064 100.361 349.032 99.1291 347.944L100.161 346.84C101.569 347.976 102.713 349.096 103.593 350.2C104.489 351.304 105.169 352.536 105.633 353.896C106.113 355.256 106.353 356.824 106.353 358.6C106.353 360.376 106.113 361.944 105.633 363.304C105.169 364.664 104.489 365.896 103.593 367C102.713 368.104 101.569 369.224 100.161 370.36L99.1291 369.256C100.345 368.168 101.313 367.136 102.033 366.16C102.769 365.168 103.321 364.072 103.689 362.872C104.057 361.656 104.241 360.232 104.241 358.6ZM116.52 354.736C117.08 354.736 117.544 354.928 117.912 355.312C118.28 355.68 118.464 356.128 118.464 356.656C118.464 357.2 118.28 357.664 117.912 358.048C117.544 358.432 117.08 358.624 116.52 358.624C115.976 358.624 115.52 358.432 115.152 358.048C114.784 357.664 114.6 357.2 114.6 356.656C114.6 356.128 114.784 355.68 115.152 355.312C115.52 354.928 115.976 354.736 116.52 354.736ZM116.52 363.016C117.064 363.016 117.52 363.208 117.888 363.592C118.272 363.96 118.464 364.416 118.464 364.96C118.464 365.536 118.312 366.168 118.008 366.856L116.04 371.32H114.216L115.368 366.568C115.128 366.392 114.936 366.16 114.792 365.872C114.664 365.584 114.6 365.28 114.6 364.96C114.6 364.416 114.784 363.96 115.152 363.592C115.52 363.208 115.976 363.016 116.52 363.016Z" fill="black"/>
<path d="M56.8693 241.76H63.0133V243.464H56.8693V249.32H64.4053V251H54.8053V234.464H64.1893L63.9493 236.192H56.8693V241.76ZM76.0359 233.024C77.2359 233.024 78.3799 233.248 79.4679 233.696L78.8199 235.208C78.0199 234.856 77.1159 234.68 76.1079 234.68C74.3479 234.68 73.4679 235.376 73.4679 236.768V239.336H77.7399L77.5239 240.944H73.4679V251H71.4279V240.944H68.4279V239.336H71.4279V236.816C71.4279 235.68 71.8599 234.768 72.7239 234.08C73.6039 233.376 74.7079 233.024 76.0359 233.024ZM90.4265 233.024C91.6265 233.024 92.7705 233.248 93.8585 233.696L93.2105 235.208C92.4105 234.856 91.5065 234.68 90.4985 234.68C88.7385 234.68 87.8585 235.376 87.8585 236.768V239.336H92.1305L91.9145 240.944H87.8585V251H85.8185V240.944H82.8185V239.336H85.8185V236.816C85.8185 235.68 86.2505 234.768 87.1145 234.08C87.9945 233.376 89.0985 233.024 90.4265 233.024ZM98.9611 245.384C99.0091 246.776 99.3691 247.824 100.041 248.528C100.729 249.232 101.593 249.584 102.633 249.584C103.257 249.584 103.825 249.496 104.337 249.32C104.865 249.128 105.425 248.84 106.017 248.456L106.953 249.8C106.361 250.264 105.681 250.624 104.913 250.88C104.161 251.136 103.401 251.264 102.633 251.264C100.809 251.264 99.3851 250.672 98.3611 249.488C97.3531 248.288 96.8491 246.688 96.8491 244.688C96.8491 243.424 97.0731 242.296 97.5211 241.304C97.9691 240.296 98.6091 239.512 99.4411 238.952C100.273 238.376 101.241 238.088 102.345 238.088C103.945 238.088 105.201 238.648 106.113 239.768C107.041 240.872 107.505 242.384 107.505 244.304C107.505 244.672 107.489 245.032 107.457 245.384H98.9611ZM102.369 239.744C101.393 239.744 100.601 240.096 99.9931 240.8C99.3851 241.488 99.0411 242.504 98.9611 243.848H105.537C105.521 242.52 105.233 241.504 104.673 240.8C104.113 240.096 103.345 239.744 102.369 239.744ZM117.48 249.536C118.584 249.536 119.68 249.168 120.768 248.432L121.728 249.752C121.2 250.216 120.544 250.584 119.76 250.856C118.976 251.128 118.216 251.264 117.48 251.264C115.608 251.264 114.144 250.68 113.088 249.512C112.048 248.328 111.528 246.736 111.528 244.736C111.528 243.472 111.76 242.336 112.224 241.328C112.704 240.32 113.392 239.528 114.288 238.952C115.184 238.376 116.248 238.088 117.48 238.088C119.112 238.088 120.52 238.584 121.704 239.576L120.72 240.896C119.616 240.16 118.528 239.792 117.456 239.792C116.32 239.792 115.408 240.216 114.72 241.064C114.048 241.896 113.712 243.12 113.712 244.736C113.712 246.352 114.048 247.56 114.72 248.36C115.408 249.144 116.328 249.536 117.48 249.536ZM136.19 250.352C135.758 250.64 135.23 250.864 134.606 251.024C133.998 251.184 133.39 251.264 132.782 251.264C131.454 251.264 130.414 250.92 129.662 250.232C128.91 249.528 128.534 248.608 128.534 247.472V239.936H125.63V238.352H128.534V235.496L130.55 235.256V238.352H134.942L134.678 239.936H130.55V247.448C130.55 248.168 130.742 248.704 131.126 249.056C131.51 249.408 132.126 249.584 132.974 249.584C133.838 249.584 134.646 249.384 135.398 248.984L136.19 250.352Z" fill="#FF007F"/>
<path d="M89.1545 292.2C90.1785 292.2 91.0585 292.336 91.7945 292.608C92.5305 292.864 93.2505 293.264 93.9545 293.808L92.7785 295.176C91.8025 294.36 90.6425 293.952 89.2985 293.952C87.8105 293.952 86.5945 294.496 85.6505 295.584C84.7225 296.656 84.2585 298.368 84.2585 300.72C84.2585 303.056 84.7145 304.768 85.6265 305.856C86.5385 306.944 87.7545 307.488 89.2745 307.488C90.1065 307.488 90.8185 307.368 91.4105 307.128C92.0025 306.888 92.5705 306.552 93.1145 306.12L94.1945 307.464C92.9625 308.664 91.3145 309.264 89.2505 309.264C87.8905 309.264 86.6665 308.936 85.5785 308.28C84.4905 307.608 83.6345 306.632 83.0105 305.352C82.3865 304.072 82.0745 302.528 82.0745 300.72C82.0745 298.928 82.3865 297.392 83.0105 296.112C83.6505 294.816 84.5065 293.84 85.5785 293.184C86.6665 292.528 87.8585 292.2 89.1545 292.2ZM102.297 305.88C102.297 307.016 102.993 307.584 104.385 307.584C105.041 307.584 105.745 307.44 106.497 307.152L107.025 308.616C106.225 309.048 105.225 309.264 104.025 309.264C102.889 309.264 101.977 308.952 101.289 308.328C100.617 307.704 100.281 306.856 100.281 305.784V292.872H96.3931V291.264H102.297V305.88ZM113.352 303.384C113.4 304.776 113.76 305.824 114.432 306.528C115.12 307.232 115.984 307.584 117.024 307.584C117.648 307.584 118.216 307.496 118.728 307.32C119.256 307.128 119.816 306.84 120.408 306.456L121.344 307.8C120.752 308.264 120.072 308.624 119.304 308.88C118.552 309.136 117.792 309.264 117.024 309.264C115.2 309.264 113.776 308.672 112.752 307.488C111.744 306.288 111.24 304.688 111.24 302.688C111.24 301.424 111.464 300.296 111.912 299.304C112.36 298.296 113 297.512 113.832 296.952C114.664 296.376 115.632 296.088 116.736 296.088C118.336 296.088 119.592 296.648 120.504 297.768C121.432 298.872 121.896 300.384 121.896 302.304C121.896 302.672 121.88 303.032 121.848 303.384H113.352ZM116.76 297.744C115.784 297.744 114.992 298.096 114.384 298.8C113.776 299.488 113.432 300.504 113.352 301.848H119.928C119.912 300.52 119.624 299.504 119.064 298.8C118.504 298.096 117.736 297.744 116.76 297.744ZM135.206 306.24C135.206 306.736 135.286 307.104 135.446 307.344C135.606 307.568 135.87 307.736 136.238 307.848L135.734 309.288C134.502 309.128 133.734 308.528 133.43 307.488C132.982 308.064 132.414 308.504 131.726 308.808C131.054 309.112 130.302 309.264 129.47 309.264C128.206 309.264 127.206 308.912 126.47 308.208C125.75 307.504 125.39 306.56 125.39 305.376C125.39 304.08 125.894 303.08 126.902 302.376C127.926 301.672 129.39 301.32 131.294 301.32H133.166V300.288C133.166 299.392 132.91 298.752 132.398 298.368C131.886 297.968 131.142 297.768 130.166 297.768C129.206 297.768 128.11 297.984 126.878 298.416L126.326 296.88C127.814 296.352 129.198 296.088 130.478 296.088C132.014 296.088 133.182 296.448 133.982 297.168C134.798 297.888 135.206 298.888 135.206 300.168V306.24ZM129.974 307.752C130.598 307.752 131.19 307.592 131.75 307.272C132.326 306.952 132.798 306.512 133.166 305.952V302.712H131.342C129.998 302.712 129.03 302.936 128.438 303.384C127.846 303.832 127.55 304.488 127.55 305.352C127.55 306.952 128.358 307.752 129.974 307.752ZM140.525 296.352H142.253L142.421 298.128C142.917 297.488 143.541 296.992 144.293 296.64C145.061 296.272 145.829 296.088 146.597 296.088C148.965 296.088 150.149 297.336 150.149 299.832V309H148.133V301.32C148.133 300.376 148.077 299.656 147.965 299.16C147.869 298.664 147.669 298.296 147.365 298.056C147.061 297.816 146.597 297.696 145.973 297.696C145.285 297.696 144.637 297.904 144.029 298.32C143.421 298.736 142.925 299.232 142.541 299.808V309H140.525V296.352ZM156.932 305.328C156.932 306.144 157.1 306.744 157.436 307.128C157.788 307.496 158.332 307.68 159.068 307.68C159.74 307.68 160.388 307.488 161.012 307.104C161.636 306.72 162.132 306.24 162.5 305.664V296.352H164.516V309H162.788L162.62 307.296C162.124 307.92 161.508 308.408 160.772 308.76C160.052 309.096 159.316 309.264 158.564 309.264C157.364 309.264 156.452 308.944 155.828 308.304C155.22 307.664 154.916 306.744 154.916 305.544V296.352H156.932V305.328ZM174.97 296.088C178.026 296.088 179.554 298.28 179.554 302.664C179.554 304.664 179.138 306.264 178.306 307.464C177.474 308.664 176.266 309.264 174.682 309.264C173.306 309.264 172.186 308.784 171.322 307.824V313.848L169.306 314.088V296.352H171.034L171.202 298.128C171.666 297.472 172.218 296.968 172.858 296.616C173.514 296.264 174.218 296.088 174.97 296.088ZM174.49 297.72C173.85 297.72 173.258 297.912 172.714 298.296C172.186 298.68 171.722 299.16 171.322 299.736V306C171.658 306.496 172.074 306.888 172.57 307.176C173.082 307.448 173.634 307.584 174.226 307.584C175.282 307.584 176.066 307.184 176.578 306.384C177.106 305.568 177.37 304.328 177.37 302.664C177.37 301 177.138 299.76 176.674 298.944C176.21 298.128 175.482 297.72 174.49 297.72Z" fill="#0096EA"/>
</svg>
