<?xml version="1.0" standalone="no"?>
<!DOCTYPE svg PUBLIC "-//W3C//DTD SVG 20010904//EN"
 "http://www.w3.org/TR/2001/REC-SVG-20010904/DTD/svg10.dtd">
<svg version="1.0" xmlns="http://www.w3.org/2000/svg"
 width="533.000000pt" height="533.000000pt" viewBox="0 0 533.000000 533.000000"
 preserveAspectRatio="xMidYMid meet">
<metadata>
Created by potrace 1.14, written by Peter Selinger 2001-2017
</metadata>
<g transform="translate(0.000000,533.000000) scale(0.100000,-0.100000)"
fill="#000000" stroke="none">
<path d="M3105 4429 c-443 -10 -611 -17 -685 -29 -36 -6 -99 -15 -140 -20
-111 -15 -143 -20 -165 -30 -11 -5 -38 -11 -60 -14 -40 -4 -87 -15 -160 -36
-22 -7 -55 -14 -73 -17 -18 -3 -35 -9 -38 -14 -3 -5 -14 -9 -25 -9 -10 0 -27
-4 -37 -9 -9 -5 -35 -14 -57 -21 -33 -9 -228 -83 -322 -121 -13 -5 -33 -13
-45 -18 -13 -5 -44 -19 -69 -30 -25 -12 -50 -21 -55 -21 -18 0 -396 -195 -487
-251 -135 -83 -328 -234 -392 -307 -11 -13 -33 -38 -48 -55 -68 -76 -167 -246
-167 -287 0 -9 -6 -22 -12 -28 -9 -9 -12 -56 -12 -160 1 -144 2 -149 33 -216
18 -38 44 -84 59 -104 26 -34 27 -39 27 -176 0 -78 4 -148 10 -156 24 -37 34
-82 22 -109 -6 -14 -14 -28 -17 -31 -14 -13 -30 -64 -30 -96 0 -39 12 -64 57
-116 31 -36 31 -38 26 -113 -7 -87 2 -112 57 -160 63 -55 68 -63 75 -116 4
-30 17 -67 28 -84 25 -37 63 -75 75 -75 17 0 50 -45 57 -78 4 -18 13 -46 21
-62 21 -40 92 -100 121 -100 13 0 23 -4 23 -9 0 -4 24 -11 54 -14 54 -5 96
-23 96 -42 1 -11 94 -90 107 -90 4 -1 17 -6 29 -12 11 -7 56 -15 100 -19 43
-4 108 -17 143 -30 35 -13 82 -24 105 -24 43 0 119 20 158 41 44 24 96 19 156
-14 54 -30 62 -31 167 -31 97 1 117 4 170 28 33 15 69 36 80 46 30 28 72 32
116 10 50 -26 118 -26 165 1 31 17 51 20 130 17 l93 -3 44 43 c45 44 95 66
118 51 20 -13 120 -11 160 3 18 6 60 28 93 47 55 33 67 36 130 35 47 -1 73 -6
80 -16 17 -22 99 -16 191 14 44 14 217 72 384 129 267 91 308 108 347 142 24
21 44 43 44 48 0 6 16 28 37 49 20 22 44 53 54 70 26 42 81 65 189 80 87 11
100 16 167 61 40 27 79 49 87 49 8 0 18 5 21 10 3 5 18 10 33 10 31 0 94 34
140 75 30 26 40 56 57 158 4 23 11 37 20 37 8 0 15 6 15 13 0 7 13 21 30 30
39 23 81 79 85 113 1 15 -8 51 -21 81 -14 30 -21 60 -17 66 4 7 8 17 9 24 1 7
14 37 28 68 35 72 33 131 -6 202 -30 55 -30 70 -1 147 8 22 17 87 20 145 6
108 11 121 71 201 22 30 51 91 60 128 13 51 6 195 -12 247 -40 115 -134 263
-235 368 -96 101 -302 240 -431 291 -25 10 -58 24 -75 31 -58 26 -213 75 -237
75 -13 0 -28 4 -34 9 -9 9 -62 19 -154 27 -30 3 -64 9 -75 14 -25 11 -100 17
-352 29 -112 5 -206 11 -210 13 -5 2 -147 0 -318 -3z m504 -99 c14 -7 41 -9
69 -5 61 8 319 -18 451 -45 458 -93 848 -359 991 -674 33 -73 50 -148 29 -128
-18 16 -29 15 -29 -4 0 -13 -103 -122 -141 -149 -59 -41 -222 -100 -311 -111
-24 -3 -57 -9 -73 -13 -17 -5 -68 -9 -115 -10 -47 -1 -104 -4 -128 -5 -38 -2
-43 0 -48 23 -49 224 -195 442 -427 637 -128 108 -434 312 -592 395 -66 34
-123 67 -126 71 -3 5 -30 11 -59 15 -113 13 -11 21 236 18 171 -2 258 -6 273
-15z m-1937 -294 c495 -129 991 -382 1300 -665 128 -117 238 -309 263 -462 l7
-44 -21 19 c-19 17 -21 17 -27 2 -3 -9 -10 -14 -14 -11 -4 3 -21 -2 -36 -10
-16 -8 -35 -15 -41 -15 -7 0 -13 -4 -13 -8 0 -5 -6 -9 -13 -9 -15 0 -251 -115
-322 -156 -27 -17 -68 -40 -90 -52 -22 -12 -98 -55 -170 -96 -359 -207 -512
-254 -830 -254 -236 0 -540 31 -628 64 -15 6 -27 9 -27 6 0 -11 -269 89 -360
135 -113 56 -283 168 -340 223 -19 19 -45 39 -57 45 -12 7 -30 26 -40 42 -16
28 -41 36 -35 11 1 -6 -2 -11 -6 -11 -17 0 -37 98 -36 175 2 154 80 301 249
470 166 167 347 291 640 438 181 90 441 195 487 196 15 1 87 -15 160 -33z
m3485 -673 c-3 -10 -5 -4 -5 12 0 17 2 24 5 18 2 -7 2 -21 0 -30z m-32 -82
c-8 -17 -21 -33 -27 -37 -8 -5 -7 1 3 16 8 14 19 31 23 38 15 25 16 11 1 -17z
m-798 -178 c-3 -10 -5 -2 -5 17 0 19 2 27 5 18 2 -10 2 -26 0 -35z m638 7 c3
-5 1 -10 -4 -10 -6 0 -11 5 -11 10 0 6 2 10 4 10 3 0 8 -4 11 -10z m65 -88 c0
-87 -19 -159 -55 -214 -34 -50 -32 -64 14 -109 69 -66 65 -152 -10 -234 -21
-23 -39 -51 -39 -61 0 -11 16 -37 35 -59 20 -22 38 -48 41 -58 8 -26 -37 -71
-97 -97 -66 -28 -86 -59 -70 -109 18 -61 14 -81 -24 -117 -34 -32 -66 -45
-147 -58 -23 -4 -56 -23 -85 -48 -63 -54 -95 -66 -203 -77 -98 -11 -143 -30
-179 -79 -18 -24 -20 -25 -20 -7 0 11 8 54 19 95 55 205 89 520 105 979 4 96
9 179 11 186 4 8 52 14 150 19 216 10 387 50 514 120 14 8 28 12 32 10 5 -3 8
-40 8 -82z m-90 73 c0 -5 -52 -28 -91 -40 -42 -13 -10 9 39 27 26 9 48 17 50
17 1 1 2 -1 2 -4z m-127 -52 c-7 -2 -19 -2 -25 0 -7 3 -2 5 12 5 14 0 19 -2
13 -5z m-463 -46 c0 -10 -4 -15 -10 -12 -5 3 -10 18 -10 33 0 21 2 24 10 12 5
-8 10 -23 10 -33z m378 26 c-10 -2 -26 -2 -35 0 -10 3 -2 5 17 5 19 0 27 -2
18 -5z m-170 -20 c-21 -2 -57 -2 -80 0 -24 2 -7 4 37 4 44 0 63 -2 43 -4z m75
0 c-7 -2 -19 -2 -25 0 -7 3 -2 5 12 5 14 0 19 -2 13 -5z m-1386 -200 c-3 -10
-5 -4 -5 12 0 17 2 24 5 18 2 -7 2 -21 0 -30z m28 -810 c-2 -364 -6 -667 -10
-672 -8 -13 -111 -51 -139 -51 -13 0 -34 9 -48 19 -46 37 -71 32 -105 -21 -33
-54 -45 -62 -116 -84 l-57 -17 -55 27 c-81 41 -127 23 -181 -72 -21 -37 -9
-35 -133 -16 -32 5 -51 0 -101 -25 -71 -36 -81 -35 -169 21 -72 45 -105 37
-141 -36 -21 -42 -88 -69 -185 -74 -77 -4 -84 -3 -150 31 -104 53 -138 56
-212 17 -44 -23 -80 -34 -127 -37 -60 -5 -69 -3 -108 23 -39 25 -52 28 -129
29 -76 0 -90 3 -127 27 -31 21 -44 38 -53 70 -7 24 -16 47 -21 53 -5 5 -36 8
-69 7 -76 -4 -149 19 -190 61 -29 29 -31 34 -25 83 6 48 4 54 -20 73 -15 12
-34 21 -43 21 -28 0 -89 58 -101 96 -10 28 -9 46 1 81 12 44 11 47 -10 65 -13
10 -32 18 -43 18 -33 0 -77 29 -84 56 -9 37 2 90 25 123 12 16 21 41 21 55 0
27 -2 28 -77 56 -63 24 -63 100 1 159 31 29 33 62 8 99 -35 50 -52 111 -52
181 0 88 15 103 56 60 72 -75 252 -190 409 -261 236 -105 479 -159 862 -189
131 -10 183 -10 275 0 256 29 332 59 714 281 229 134 414 231 569 300 55 24
104 47 110 52 5 4 9 27 8 51 -2 39 -1 38 11 -17 11 -47 13 -195 11 -723z
m-3081 751 c3 -8 2 -12 -4 -9 -6 3 -10 10 -10 16 0 14 7 11 14 -7z m3032 -49
c-11 -8 -25 -15 -30 -15 -6 1 0 7 14 15 32 19 40 18 16 0z m-2963 -41 c26 -35
16 -30 -24 12 -18 20 -25 31 -14 24 11 -6 28 -23 38 -36z m2752 -57 c-82 -40
-190 -95 -240 -121 -49 -26 -81 -40 -70 -31 25 21 432 225 448 225 7 -1 -55
-33 -138 -73z m-2604 -154 c13 -16 12 -17 -3 -4 -10 7 -18 15 -18 17 0 8 8 3
21 -13z m2264 -21 c-14 -13 -165 -102 -171 -102 -3 0 -20 -10 -37 -22 -24 -17
-28 -18 -18 -4 8 10 35 28 60 41 25 13 73 39 105 59 58 35 80 45 61 28z
m-2144 -59 c13 -16 12 -17 -3 -4 -10 7 -18 15 -18 17 0 8 8 3 21 -13z m44 -23
c3 -6 -1 -7 -9 -4 -18 7 -21 14 -7 14 6 0 13 -4 16 -10z m1855 -64 c0 -2 -27
-18 -60 -35 -74 -39 -79 -34 -7 8 49 29 67 36 67 27z m-1695 -16 c3 -6 -1 -7
-9 -4 -18 7 -21 14 -7 14 6 0 13 -4 16 -10z m100 -40 c3 -6 -1 -7 -9 -4 -18 7
-21 14 -7 14 6 0 13 -4 16 -10z m59 -19 c4 -5 -3 -7 -14 -4 -23 6 -26 13 -6
13 8 0 17 -4 20 -9z m1406 5 c0 -2 -7 -7 -16 -10 -8 -3 -12 -2 -9 4 6 10 25
14 25 6z m-1335 -26 c25 -11 -1 -11 -35 0 -20 6 -21 8 -5 8 11 0 29 -3 40 -8z
m1255 -15 c-25 -13 -52 -24 -60 -24 -16 0 78 47 95 48 6 0 -10 -11 -35 -24z
m-1205 -5 c3 -6 -1 -7 -9 -4 -18 7 -21 14 -7 14 6 0 13 -4 16 -10z m1105 -29
c0 -9 -41 -23 -49 -16 -3 4 28 20 47 24 1 1 2 -3 2 -8z m-957 -8 c-7 -2 -19
-2 -25 0 -7 3 -2 5 12 5 14 0 19 -2 13 -5z m135 -20 c-10 -2 -26 -2 -35 0 -10
3 -2 5 17 5 19 0 27 -2 18 -5z m755 0 c-7 -2 -19 -2 -25 0 -7 3 -2 5 12 5 14
0 19 -2 13 -5z m-550 -20 c-18 -2 -48 -2 -65 0 -18 2 -4 4 32 4 36 0 50 -2 33
-4z m450 0 c-18 -2 -48 -2 -65 0 -18 2 -4 4 32 4 36 0 50 -2 33 -4z"/>
<path d="M3180 4319 c0 -20 314 -26 326 -7 5 7 0 9 -14 6 -12 -4 -22 -3 -22 2
0 4 -65 7 -145 7 -80 0 -145 -3 -145 -8z"/>
<path d="M3570 4310 c0 -5 7 -7 15 -4 8 4 15 8 15 10 0 2 -7 4 -15 4 -8 0 -15
-4 -15 -10z"/>
<path d="M3730 4301 c8 -6 34 -13 58 -17 23 -3 45 -10 48 -15 3 -5 12 -9 20
-9 24 0 257 -115 325 -160 73 -49 174 -133 204 -169 79 -95 125 -168 151 -236
6 -18 8 -18 11 -2 5 18 -46 127 -59 127 -4 0 -8 5 -8 10 0 6 -23 40 -51 75
-74 95 -226 213 -354 275 -27 14 -52 27 -55 31 -3 3 -26 14 -52 24 -27 10 -48
21 -48 24 0 9 -102 38 -160 46 -32 4 -41 3 -30 -4z"/>
<path d="M3970 4269 c-22 -6 -20 -7 13 -8 20 -1 37 3 37 7 0 10 -17 11 -50 1z"/>
<path d="M4098 4248 c-9 -5 -4 -8 15 -8 15 0 27 4 27 8 0 11 -25 11 -42 0z"/>
<path d="M3613 4235 c-7 -8 0 -11 28 -12 41 -1 245 -66 297 -95 18 -10 39 -18
47 -18 8 0 15 -3 15 -7 0 -5 25 -19 55 -33 30 -14 55 -28 55 -32 0 -5 7 -8 15
-8 8 0 15 -4 15 -10 0 -5 6 -10 13 -10 19 0 127 -99 196 -180 34 -41 42 -53
52 -85 1 -5 9 -16 16 -24 8 -7 17 -26 20 -42 3 -15 11 -30 18 -33 10 -4 11 2
5 25 -29 100 -183 276 -319 364 -127 82 -270 144 -437 189 -59 17 -83 19 -91
11z"/>
<path d="M4195 4230 c-4 -6 3 -10 14 -10 25 0 27 6 6 13 -8 4 -17 2 -20 -3z"/>
<path d="M4270 4210 c-13 -8 -12 -10 3 -10 9 0 17 5 17 10 0 12 -1 12 -20 0z"/>
<path d="M4340 4189 c0 -5 9 -9 20 -9 11 0 20 2 20 4 0 2 -9 6 -20 9 -11 3
-20 1 -20 -4z"/>
<path d="M4620 4066 c0 -2 7 -7 16 -10 8 -3 12 -2 9 4 -6 10 -25 14 -25 6z"/>
<path d="M4670 4035 c7 -9 15 -13 17 -11 7 7 -7 26 -19 26 -6 0 -6 -6 2 -15z"/>
<path d="M4719 4006 c27 -29 33 -32 25 -13 -2 7 -14 19 -27 26 -21 13 -21 12
2 -13z"/>
<path d="M4790 3955 c7 -8 17 -15 22 -15 5 0 3 7 -6 15 -8 8 -18 15 -22 15 -3
0 -1 -7 6 -15z"/>
<path d="M4981 3773 c7 -12 15 -20 18 -17 3 2 -3 12 -13 22 -17 16 -18 16 -5
-5z"/>
<path d="M4530 3629 c0 -5 5 -7 10 -4 6 3 10 8 10 11 0 2 -4 4 -10 4 -5 0 -10
-5 -10 -11z"/>
<path d="M1445 4030 c-3 -5 -1 -10 4 -10 6 0 11 5 11 10 0 6 -2 10 -4 10 -3 0
-8 -4 -11 -10z"/>
<path d="M1350 3990 c-12 -8 -10 -10 8 -10 13 0 20 4 17 10 -7 12 -6 12 -25 0z"/>
<path d="M1251 3943 c0 -11 3 -13 6 -5 2 6 10 9 15 6 7 -4 8 -2 4 4 -11 18
-26 14 -25 -5z"/>
<path d="M1339 3954 c-15 -3 -35 -15 -45 -27 -11 -12 -12 -17 -4 -10 27 20 83
24 175 13 362 -44 822 -282 1133 -585 113 -111 125 -136 71 -159 -20 -8 -26
-15 -17 -18 18 -7 53 22 63 51 6 19 -8 38 -92 123 -54 55 -122 119 -151 142
-30 22 -73 56 -95 74 -23 17 -49 35 -57 39 -8 4 -35 21 -60 38 -25 17 -52 34
-60 38 -8 4 -31 17 -50 28 -43 27 -149 80 -215 109 -27 12 -63 28 -80 35 -16
8 -61 24 -100 36 -38 12 -79 25 -90 30 -11 4 -36 10 -55 14 -19 3 -57 10 -85
15 -71 13 -155 19 -186 14z"/>
<path d="M1312 3857 c-8 -9 12 -12 86 -13 66 -1 122 -9 177 -24 44 -12 91 -24
105 -27 14 -2 29 -8 35 -14 5 -5 18 -9 30 -9 12 0 25 -4 31 -9 5 -5 27 -14 49
-21 22 -7 55 -21 73 -32 18 -10 39 -18 47 -18 8 0 15 -4 15 -10 0 -5 9 -10 20
-10 11 0 20 -4 20 -10 0 -5 9 -10 19 -10 11 0 21 -3 23 -7 4 -11 90 -54 95
-49 9 8 -167 99 -322 166 -95 41 -277 88 -367 95 -40 3 -85 8 -100 10 -14 2
-31 -1 -36 -8z"/>
<path d="M1031 3844 c0 -11 3 -14 6 -6 3 7 2 16 -1 19 -3 4 -6 -2 -5 -13z"/>
<path d="M990 3825 c0 -8 2 -15 4 -15 2 0 6 7 10 15 3 8 1 15 -4 15 -6 0 -10
-7 -10 -15z"/>
<path d="M865 3760 c-3 -5 -1 -10 4 -10 6 0 11 5 11 10 0 6 -2 10 -4 10 -3 0
-8 -4 -11 -10z"/>
<path d="M815 3729 c-4 -6 -5 -12 -2 -15 2 -3 7 2 10 11 7 17 1 20 -8 4z"/>
<path d="M2150 3582 c0 -5 20 -19 45 -32 25 -13 45 -27 45 -32 0 -4 6 -8 14
-8 7 0 27 -13 44 -30 18 -16 36 -30 40 -30 5 0 23 -13 40 -30 18 -16 35 -30
40 -30 4 0 53 -45 107 -100 55 -55 104 -100 110 -100 22 0 -217 221 -310 287
-124 86 -175 117 -175 105z"/>
<path d="M640 3560 c-21 -18 -21 -20 -5 -14 90 33 313 -4 521 -86 169 -67 396
-193 524 -291 180 -137 340 -291 340 -326 0 -11 -11 -26 -25 -33 -33 -17 -26
-23 8 -7 14 6 29 23 32 36 5 21 -8 39 -92 124 -87 88 -196 184 -259 227 -150
103 -212 141 -339 203 -242 120 -395 166 -605 183 -68 6 -77 4 -100 -16z"/>
<path d="M500 3509 c0 -5 5 -7 10 -4 6 3 10 8 10 11 0 2 -4 4 -10 4 -5 0 -10
-5 -10 -11z"/>
<path d="M647 3477 c-3 -9 22 -12 87 -13 119 -1 279 -38 403 -95 24 -10 46
-19 50 -19 13 0 218 -104 221 -112 2 -5 10 -8 18 -8 8 0 14 -4 14 -10 0 -5 5
-10 10 -10 13 0 164 -100 168 -112 2 -4 9 -8 15 -8 7 0 29 -16 51 -35 21 -19
41 -35 45 -35 4 0 53 -46 109 -101 56 -56 102 -98 102 -93 0 12 -172 180 -230
225 -257 199 -517 333 -785 404 -100 26 -271 40 -278 22z"/>
<path d="M4487 2334 c-14 -15 -6 -90 13 -121 27 -44 54 -56 111 -50 61 7 89
22 89 47 0 19 -5 20 -68 14 -79 -7 -88 -1 -100 67 -7 41 -27 60 -45 43z"/>
<path d="M2590 1955 c-20 -24 -4 -101 30 -138 25 -28 34 -32 78 -31 57 2 105
22 110 45 4 23 -19 29 -67 17 -56 -14 -89 -4 -96 30 -19 91 -30 107 -55 77z"/>
<path d="M1445 1790 c-11 -34 5 -99 32 -130 22 -27 31 -30 79 -30 64 0 117 23
112 48 -4 18 -25 20 -89 7 -30 -6 -41 -3 -58 14 -12 12 -21 34 -21 50 0 16 -3
36 -6 45 -9 23 -41 20 -49 -4z"/>
<path d="M924 1781 c-88 -54 -82 -148 12 -187 50 -21 74 -18 74 9 0 17 -9 26
-34 35 -18 7 -41 21 -51 32 -17 19 -17 21 24 58 65 59 47 97 -25 53z"/>
<path d="M1285 1439 c-26 -49 -24 -108 4 -130 41 -34 202 -17 208 22 6 34 -12
41 -61 25 -60 -20 -105 -21 -113 0 -3 8 2 32 12 54 9 21 14 43 11 49 -14 21
-45 11 -61 -20z"/>
<path d="M5262 3435 c0 -16 2 -22 5 -12 2 9 2 23 0 30 -3 6 -5 -1 -5 -18z"/>
<path d="M5122 3035 c0 -16 2 -22 5 -12 2 9 2 23 0 30 -3 6 -5 -1 -5 -18z"/>
<path d="M1083 953 c9 -2 25 -2 35 0 9 3 1 5 -18 5 -19 0 -27 -2 -17 -5z"/>
<path d="M1798 893 c6 -2 18 -2 25 0 6 3 1 5 -13 5 -14 0 -19 -2 -12 -5z"/>
</g>
</svg>
