<?xml version="1.0" standalone="no"?>
<!DOCTYPE svg PUBLIC "-//W3C//DTD SVG 20010904//EN"
 "http://www.w3.org/TR/2001/REC-SVG-20010904/DTD/svg10.dtd">
<svg version="1.0" xmlns="http://www.w3.org/2000/svg"
 width="700.000000pt" height="700.000000pt" viewBox="0 0 700.000000 700.000000"
 preserveAspectRatio="xMidYMid meet">
<metadata>
Created by potrace 1.14, written by Peter Selinger 2001-2017
</metadata>
<g transform="translate(0.000000,700.000000) scale(0.100000,-0.100000)"
fill="#000000" stroke="none">
<path d="M4630 6360 c-548 -53 -1279 -215 -1778 -396 -614 -223 -1173 -552
-1747 -1030 -168 -140 -516 -488 -628 -629 -242 -303 -396 -599 -452 -870 -23
-109 -30 -274 -16 -365 36 -230 131 -499 244 -688 32 -54 35 -64 40 -173 18
-348 153 -682 369 -915 218 -233 516 -363 876 -381 112 -5 132 -9 166 -31 147
-92 421 -185 671 -228 126 -22 496 -25 630 -6 207 30 470 102 647 178 66 28
100 36 196 44 514 45 924 221 1233 529 142 142 216 242 299 404 l56 112 105 7
c57 3 151 16 209 28 456 93 780 349 937 739 30 74 59 127 98 176 106 135 182
316 206 491 38 285 -56 634 -235 871 l-52 68 48 70 c102 152 143 312 135 524
-12 323 -154 633 -409 892 -298 303 -694 491 -1190 565 -123 18 -522 27 -658
14z m-301 -360 c51 -37 91 -99 160 -250 29 -63 77 -152 107 -196 87 -132 134
-170 485 -394 156 -99 222 -170 298 -317 64 -125 78 -141 223 -265 64 -55 88
-108 88 -197 0 -103 1 -101 -107 -101 -255 0 -546 -64 -788 -175 -43 -19 -79
-35 -81 -35 -2 0 -4 15 -4 33 0 57 -38 184 -75 257 -48 89 -90 138 -185 210
-43 33 -105 92 -138 132 -164 201 -313 284 -668 374 -295 74 -360 93 -419 119
-55 24 -97 69 -215 230 -40 55 -99 130 -131 166 l-59 67 124 45 c270 99 640
200 1001 272 339 67 326 66 384 25z m-3057 -1427 c36 -19 104 -66 150 -104 45
-39 93 -75 106 -80 37 -15 85 -10 120 11 18 11 34 20 36 20 2 0 53 -54 115
-119 l111 -119 -21 -37 c-17 -28 -20 -47 -17 -86 12 -118 150 -166 232 -80 23
24 33 28 51 21 12 -4 75 -20 141 -34 65 -15 129 -29 142 -31 18 -4 22 -12 22
-43 0 -52 32 -99 83 -122 23 -11 48 -20 56 -20 26 0 185 -81 227 -115 23 -19
67 -70 97 -113 30 -42 82 -102 117 -132 134 -117 158 -146 177 -207 18 -62 24
-211 10 -273 -6 -30 -34 -57 -180 -178 -202 -167 -366 -292 -512 -391 -140
-96 -135 -95 -135 -30 -1 128 -53 276 -129 361 -38 43 -163 118 -196 118 -6 0
-56 41 -111 91 -120 110 -199 164 -336 228 -112 53 -169 69 -353 100 -188 32
-222 45 -280 104 -28 29 -95 111 -149 182 -118 154 -220 256 -304 306 l-62 36
53 79 c103 158 225 302 423 503 227 229 199 215 316 154z m5285 -541 c125
-186 188 -427 163 -624 -21 -174 -76 -294 -195 -428 -29 -32 -50 -71 -65 -116
-86 -258 -230 -428 -460 -544 -158 -80 -323 -118 -543 -127 -215 -8 -207 -3
-296 -211 -205 -482 -714 -795 -1371 -842 -115 -8 -132 -12 -220 -50 -609
-269 -1287 -245 -1782 62 -45 28 -53 29 -185 33 -220 5 -346 35 -504 117 -191
99 -342 268 -434 486 -35 84 -71 200 -63 207 2 2 24 -9 48 -26 274 -185 685
-268 1130 -229 316 29 524 114 909 374 300 202 527 389 1194 985 467 417 579
506 809 642 212 126 408 200 633 240 96 17 187 22 460 29 409 10 521 26 661
98 21 11 42 18 46 16 4 -3 33 -44 65 -92z"/>
<path d="M5594 3596 c-95 -42 -104 -187 -14 -240 38 -22 108 -20 146 3 45 27
69 94 55 148 -22 82 -108 123 -187 89z"/>
<path d="M4642 2810 c-124 -76 -76 -250 69 -250 137 0 180 195 56 253 -46 22
-85 21 -125 -3z"/>
<path d="M3400 1972 c-132 -66 -90 -252 58 -252 137 0 183 181 63 248 -47 27
-75 28 -121 4z"/>
</g>
</svg>
