<svg id="Layer_3" enable-background="new 0 0 64 64" height="512" viewBox="0 0 64 64" width="512" xmlns="http://www.w3.org/2000/svg"><g><path d="m4 33h56v26h-56z" fill="#59ac98"/><path d="m4 33v19.168c2.091.584 4.293.902 6.57.902 11.998 0 21.966-8.661 24.01-20.07z" fill="#70ce90"/><path d="m60 6h-56c-1.105 0-2-.895-2-2 0-1.105.895-2 2-2h56c1.105 0 2 .895 2 2 0 1.105-.895 2-2 2z" fill="#243242"/><path d="m11 2h4v4h-4z" fill="#a8b0bc"/><path d="m60 33h-56c-1.105 0-2-.895-2-2 0-1.105.895-2 2-2h56c1.105 0 2 .895 2 2 0 1.105-.895 2-2 2z" fill="#243242"/><path d="m22 45h-12v-3c0-1.105.895-2 2-2h8c1.105 0 2 .895 2 2z" fill="#bf5763"/><path d="m18 55.077v-10.077h-4v10.077c0 1.447-.803 2.744-2.045 3.484-1.171.698-1.955 1.977-1.955 3.439h12c0-1.462-.784-2.741-1.955-3.438-1.242-.741-2.045-2.038-2.045-3.485z" fill="#e7e4dd"/><path d="m38 45h-12v-3c0-1.105.895-2 2-2h8c1.105 0 2 .895 2 2z" fill="#bf5763"/><path d="m34 55.077v-10.077h-4v10.077c0 1.447-.803 2.744-2.045 3.484-1.171.698-1.955 1.977-1.955 3.439h12c0-1.462-.784-2.741-1.955-3.438-1.242-.741-2.045-2.038-2.045-3.485z" fill="#e7e4dd"/><path d="m54 45h-12v-3c0-1.105.895-2 2-2h8c1.105 0 2 .895 2 2z" fill="#bf5763"/><path d="m50 55.077v-10.077h-4v10.077c0 1.447-.803 2.744-2.045 3.484-1.171.698-1.955 1.977-1.955 3.439h12c0-1.462-.784-2.741-1.955-3.438-1.242-.741-2.045-2.038-2.045-3.485z" fill="#e7e4dd"/><g fill="#c7e2fc"><path d="m10 10.586c0-.002-.001-.003-.001-.005v-4.581h-1.999v4.591c-.001.904-.36 1.77-1 2.409-.64.64-1 1.509-1 2.414v.586c0 .552.448 1 1 1h4c.552 0 1-.448 1-1v-.586c0-.906-.36-1.774-1-2.414s-1-1.509-1-2.414z"/><path d="m19 10.586c0-.002-.001-.003-.001-.005v-4.581h-2v4.591c-.001.904-.36 1.77-1 2.409-.64.64-1 1.509-1 2.414v.586c0 .552.448 1 1 1h4c.552 0 1-.448 1-1v-.586c0-.906-.36-1.774-1-2.414-.639-.64-.999-1.509-.999-2.414z"/><path d="m29 13c-.64-.64-1-1.509-1-2.414 0-.002-.001-.003-.001-.005v-4.581h-2v4.591c-.001.904-.36 1.77-1 2.409-.64.64-1 1.509-1 2.414v.586c0 .552.448 1 1 1h4c.552 0 1-.448 1-1v-.586c.001-.905-.359-1.774-.999-2.414z"/></g><path d="m52 29v-4c0-.906.36-1.774 1-2.414.64-.64 1-1.509 1-2.414v-2.172h4v2.172c0 .906.36 1.774 1 2.414.64.64 1 1.509 1 2.414v4z" fill="#f7d881"/><g><path d="m56.999 17.999h-2v-3l-1.708-1.707 1.415-1.415 2 2c.188.188.292.442.292.708v3.414z" fill="#e7e4dd"/></g><path d="m39 29 3-7h4l3 7z" fill="#e7e4dd"/><g><path d="m4 50h6v2h-6z" fill="#243242"/></g><g><path d="m54 50h6v2h-6z" fill="#243242"/></g><g><path d="m54 54h6v2h-6z" fill="#243242"/></g><g><path d="m4 54h6v2h-6z" fill="#243242"/></g><path d="m49 2h4v4h-4z" fill="#a8b0bc"/><path d="m42 18v-4c0-1.105.895-2 2-2 1.105 0 2 .895 2 2v4" fill="#f7d881"/><circle cx="44" cy="20" fill="#243242" r="3"/><path d="m60.999 28.183v-3.183c0-1.18-.459-2.288-1.292-3.122-.45-.449-.708-1.071-.708-1.707v-2.171c0-.553-.447-1-1-1h-1v-2.415c0-.266-.105-.52-.292-.708l-2-2-1.415 1.415 1.708 1.708v2h-1c-.553 0-1 .447-1 1v2.171c0 .645-.251 1.251-.708 1.707-.834.834-1.292 1.943-1.292 3.122v2.999h-1.341l-2.427-5.663c.478-.659.768-1.462.768-2.336 0-1.006-.385-1.915-1-2.618v-3.382c0-1.654-1.346-3-3-3s-3 1.346-3 3v3.382c-.615.703-1 1.612-1 2.618 0 .874.29 1.677.768 2.336l-2.427 5.663h-34.342c-1.654 0-3 1.346-3 3.001 0 1.302.839 2.401 2 2.815v25.185c0 .552.447 1 1 1h5.428c-.274.624-.427 1.302-.427 2 0 .553.447 1 1 1h12c.266 0 .52-.105.708-.292s.292-.442.292-.708c0-.698-.154-1.377-.428-2h2.857c-.275.623-.429 1.302-.429 2 0 .553.447 1 1 1h12c.266 0 .52-.105.708-.292s.292-.442.292-.708c0-.698-.154-1.377-.428-2h2.857c-.275.623-.429 1.302-.429 2 0 .553.447 1 1 1h12c.266 0 .52-.105.708-.292s.292-.442.292-.708c0-.698-.154-1.376-.427-2h5.427c.553 0 1-.448 1-1v-25.185c1.161-.414 2-1.514 2-2.816s-.839-2.402-2.001-2.816zm-7.999-3.183c0-.645.251-1.251.708-1.708.833-.833 1.292-1.941 1.292-3.121v-1.171h2v1.171c0 1.179.459 2.288 1.293 3.121.456.456.707 1.062.707 1.708v2.999h-6zm-11-5c0-1.103.897-2 2-2s2 .897 2 2-.897 2-2 2c-1.104-.001-2-.898-2-2zm2-7c.551 0 .999.448.999 1v2.142c-.321-.084-.652-.142-.999-.142s-.678.058-1 .142v-2.142c0-.552.448-1 1-1zm-1.62 10.65c.496.221 1.042.349 1.62.349.577 0 1.123-.128 1.619-.349l1.864 4.349h-6.967zm-38.381 6.349h48 8 .001c.551 0 1 .449 1 1.001 0 .551-.449 1-1 1h-56.001c-.551 0-1-.449-1-1 0-.552.449-1.001 1-1.001zm7.174 31.001c.232-.651.685-1.217 1.293-1.579 1.586-.946 2.534-2.57 2.534-4.344v-9.077h2v9.077c0 1.774.947 3.397 2.534 4.343.608.362 1.062.928 1.293 1.579h-9.654zm-.173-17.001v-1.999c0-.552.448-1 1-1h8c.552 0 1 .448 1 1v1.999zm16.173 17.001c.232-.651.685-1.217 1.293-1.579 1.586-.946 2.534-2.57 2.534-4.344v-9.077h2v9.077c0 1.774.947 3.397 2.534 4.343.608.362 1.062.928 1.293 1.579h-9.654zm-.173-17.001v-1.999c0-.552.448-1 1-1h8c.552 0 1 .448 1 1v1.999zm16.173 17.001c.232-.651.685-1.217 1.293-1.579 1.586-.946 2.534-2.57 2.534-4.344v-9.077h2v9.077c0 1.774.947 3.397 2.534 4.343.608.362 1.062.928 1.293 1.579h-9.654zm-.173-17.001v-1.999c0-.552.448-1 1-1h8c.552 0 1 .448 1 1v1.999zm10 14.001v.008c-.143-.108-.288-.213-.443-.305-.975-.581-1.558-1.562-1.558-2.625v-9.078h3c.553 0 1-.447 1-1v-3c0-1.654-1.346-3-3-3h-8c-1.654 0-3 1.346-3 3v2.999c0 .553.447 1 1 1h3v9.078c0 1.062-.582 2.044-1.557 2.625-.155.093-.301.198-.443.306v-.008h-6v.008c-.143-.108-.288-.213-.443-.305-.975-.581-1.558-1.562-1.558-2.625v-9.078h3c.553 0 1-.447 1-1v-3c0-1.654-1.346-3-3-3h-8c-1.654 0-3 1.346-3 3v2.999c0 .553.447 1 1 1h3v9.078c0 1.062-.582 2.044-1.557 2.625-.155.093-.301.198-.443.306v-.008h-6v.008c-.143-.108-.288-.213-.443-.305-.975-.581-1.558-1.562-1.558-2.625v-9.078h3c.553 0 1-.447 1-1v-3c0-1.654-1.346-3-3-3h-8c-1.654 0-3 1.346-3 3v2.999c0 .553.447 1 1 1h3v9.078c0 1.062-.582 2.044-1.557 2.625-.155.093-.301.198-.443.306v-.008h-5.997v-2.001h5v-2h-5v-2h5v-2h-5v-15.999h54v16h-5v2h5v2h-5v2h5v2z"/><path d="m60 1h-56.001c-1.654 0-3 1.346-3 3s1.346 3 3 3h4v2.115c-.585.234-1 .803-1 1.471 0 .645-.251 1.251-.708 1.707-.833.833-1.291 1.942-1.291 3.121v.585c0 1.103.897 2 2 2h4c1.103 0 2-.897 2-2v-.585c0-1.179-.459-2.288-1.292-3.122-.456-.456-.708-1.062-.708-1.707 0-.667-.415-1.237-1-1.471v-2.114h7v2.115c-.585.234-1 .803-1 1.471 0 .645-.251 1.251-.708 1.707-.834.833-1.292 1.942-1.292 3.121v.585c0 1.103.897 2 2 2h4c1.103 0 2-.897 2-2v-.585c0-1.179-.459-2.288-1.292-3.122-.456-.456-.708-1.062-.708-1.707 0-.667-.415-1.237-1-1.471v-2.114h7v2.115c-.585.234-1 .803-1 1.471 0 .645-.251 1.251-.708 1.707-.834.833-1.292 1.942-1.292 3.121v.585c0 1.103.897 2 2 2h4c1.103 0 2-.897 2-2v-.585c0-1.179-.459-2.288-1.292-3.122-.456-.456-.708-1.062-.708-1.707 0-.667-.415-1.237-1-1.471v-2.114h32c1.654 0 3-1.346 3-3 0-1.655-1.346-3-3-3zm-49.001 14.414v.585h-3.999v-.585c0-.645.251-1.251.708-1.707.734-.736 1.178-1.685 1.272-2.707h.038c.094 1.022.539 1.972 1.274 2.708.457.455.707 1.061.707 1.706zm9 0v.585h-4v-.585c0-.645.251-1.251.708-1.707.735-.735 1.179-1.685 1.273-2.707h.038c.094 1.022.539 1.972 1.274 2.708.457.455.707 1.061.707 1.706zm9 0v.585h-4v-.585c0-.645.251-1.251.708-1.707.735-.735 1.179-1.685 1.273-2.707h.038c.094 1.022.539 1.972 1.274 2.708.457.455.707 1.061.707 1.706zm-13-12.414h32v2h-32zm-1.999 2h-2v-2h2zm35.999-2h2v2h-2zm-47 1c0-.551.449-1 1-1h6v2h-6c-.551 0-1-.449-1-1zm57.001 1h-6.001v-2h6.001c.551 0 1 .448 1 1 0 .551-.449 1-1 1z"/></g></svg>