<svg height="512" viewBox="0 0 128 128" width="512" xmlns="http://www.w3.org/2000/svg"><g><path d="m30.036 113.203 8.491 8.491 8.491-8.491 8.491 8.491 8.491-8.491 8.491 8.491 8.491-8.491 8.491 8.491 8.491-8.491 8.491 8.491v-115.388h-84.91v115.388z" fill="#e2e8ed"/><circle cx="64" cy="42.044" fill="#f9cc4e" r="20.747"/><g fill="#142850"><path d="m33.576 75.455a1.75 1.75 0 0 0 1.75 1.75h8.716a1.75 1.75 0 0 0 0-3.5h-8.716a1.749 1.749 0 0 0 -1.75 1.75z"/><path d="m92.674 73.705h-40.144a1.75 1.75 0 0 0 0 3.5h40.144a1.75 1.75 0 0 0 0-3.5z"/><path d="m35.326 88.585h8.716a1.75 1.75 0 1 0 0-3.5h-8.716a1.75 1.75 0 0 0 0 3.5z"/><path d="m92.674 85.085h-40.144a1.75 1.75 0 0 0 0 3.5h40.144a1.75 1.75 0 0 0 0-3.5z"/><path d="m35.326 99.966h8.716a1.75 1.75 0 0 0 0-3.5h-8.716a1.75 1.75 0 0 0 0 3.5z"/><path d="m92.674 96.466h-40.144a1.75 1.75 0 1 0 0 3.5h40.144a1.75 1.75 0 0 0 0-3.5z"/><path d="m65.46 40.325v-5.725a9.951 9.951 0 0 1 4.321 2.282l2.068-2.8a11.308 11.308 0 0 0 -6.389-2.83v-1.88h-2.768v1.856c-3.744.456-6.269 2.981-6.269 6.267 0 3.591 2.525 4.93 6.269 5.9v5.933a10.4 10.4 0 0 1 -4.9-2.616l-2.192 2.711a12.462 12.462 0 0 0 7.09 3.255v2.038h2.77v-1.947c4.412-.3 6.938-2.86 6.938-6.359.002-3.71-2.77-5.142-6.938-6.085zm-2.768-.73c-1.644-.578-2.435-1.217-2.435-2.434a2.873 2.873 0 0 1 2.435-2.617zm2.768 9.919v-5.414c2.16.639 3.134 1.278 3.134 2.677 0 1.337-1.065 2.494-3.134 2.737z"/><path d="m64 19.547a22.5 22.5 0 1 0 22.5 22.5 22.522 22.522 0 0 0 -22.5-22.5zm0 41.494a19 19 0 1 1 19-19 19.018 19.018 0 0 1 -19 19z"/><path d="m106.455 4.557h-84.91a1.75 1.75 0 0 0 -1.75 1.75v15.893a1.75 1.75 0 0 0 3.5 0v-14.143h81.41v80.637a1.75 1.75 0 0 0 3.5 0v-82.387a1.75 1.75 0 0 0 -1.75-1.75z"/><path d="m106.455 95.6a1.75 1.75 0 0 0 -1.75 1.75v4.5a1.75 1.75 0 0 0 3.5 0v-4.5a1.751 1.751 0 0 0 -1.75-1.75z"/><path d="m106.455 108.337a1.75 1.75 0 0 0 -1.75 1.75v7.381l-5.5-5.5a1.75 1.75 0 0 0 -2.474 0l-7.254 7.254-7.254-7.254a1.75 1.75 0 0 0 -2.474 0l-7.254 7.254-7.254-7.254a1.75 1.75 0 0 0 -2.474 0l-7.254 7.254-7.254-7.254a1.75 1.75 0 0 0 -2.474 0l-7.254 7.254-7.254-7.254a1.75 1.75 0 0 0 -2.474 0l-5.5 5.5v-87.6a1.75 1.75 0 0 0 -3.5 0v91.821a1.75 1.75 0 0 0 2.988 1.238l7.253-7.254 7.254 7.254a1.751 1.751 0 0 0 2.475 0l7.253-7.254 7.254 7.254a1.751 1.751 0 0 0 2.475 0l7.245-7.25 7.254 7.254a1.751 1.751 0 0 0 2.475 0l7.253-7.253 7.253 7.253a1.751 1.751 0 0 0 2.475 0l7.254-7.254 7.253 7.254a1.75 1.75 0 0 0 2.988-1.238v-11.606a1.751 1.751 0 0 0 -1.75-1.75z"/></g></g></svg>