<?xml version="1.0" encoding="iso-8859-1"?>
<!-- Generator: Adobe Illustrator 19.0.0, SVG Export Plug-In . SVG Version: 6.00 Build 0)  -->
<svg xmlns="http://www.w3.org/2000/svg" xmlns:xlink="http://www.w3.org/1999/xlink" version="1.1" id="Layer_1" x="0px" y="0px" viewBox="0 0 511 511" style="enable-background:new 0 0 511 511;" xml:space="preserve" width="512" height="512">
<g>
	<g>
		<rect x="408" y="335" style="fill:#FF907A;" width="96" height="32"/>
		<rect x="480" y="335" style="fill:#FF512E;" width="24" height="32"/>
	</g>
	<rect x="40" y="175" style="fill:#1CB7BD;" width="32" height="104"/>
	<rect x="280" y="175" style="fill:#1CB7BD;" width="32" height="104"/>
	<g>
		<path style="fill:#EA9A10;" d="M320,135v24c0,13.255-10.745,24-24,24l0,0c-13.255,0-24-10.745-24-24v-24"/>
		<path style="fill:#EA9A10;" d="M272,135v24c0,13.255-10.745,24-24,24l0,0c-13.255,0-24-10.745-24-24v-24"/>
		<path style="fill:#EA9A10;" d="M224,135v24c0,13.255-10.745,24-24,24l0,0c-13.255,0-24-10.745-24-24v-24"/>
		<path style="fill:#EA9A10;" d="M176,135v24c0,13.255-10.745,24-24,24l0,0c-13.255,0-24-10.745-24-24v-24"/>
		<path style="fill:#EA9A10;" d="M128,135v24c0,13.255-10.745,24-24,24l0,0c-13.255,0-24-10.745-24-24v-24"/>
		<path style="fill:#EA9A10;" d="M80,135v24c0,13.255-10.745,24-24,24l0,0c-13.255,0-24-10.745-24-24v-24"/>
	</g>
	<rect x="32" y="23" style="fill:#FEEF7F;" width="288" height="112"/>
	<polyline style="fill:#FF907A;" points="104,279 104,247 160,247 160,279  "/>
	<polyline style="fill:#FF907A;" points="192,279 192,247 248,247 248,279  "/>
	<polyline style="fill:#1CB7BD;" points="256,423 240,487 224,487 224,423  "/>
	<rect x="8" y="279" style="fill:#87E6DE;" width="336" height="144"/>
	<rect x="320" y="279" style="fill:#1CB7BD;" width="24" height="144"/>
	<circle style="fill:#8CA4B8;" cx="112" cy="423" r="64"/>
	<circle style="fill:#FFFFFF;" cx="112" cy="423" r="32"/>
	<g>
		<g>
			<rect x="200" y="311.5" style="fill:#FFFFFF;" width="16" height="15"/>
		</g>
		<g>
			<rect x="168" y="311.5" style="fill:#FFFFFF;" width="16" height="15"/>
		</g>
		<g>
			<rect x="136" y="311.5" style="fill:#FFFFFF;" width="16" height="15"/>
		</g>
	</g>
	<g>
		<rect x="264" y="335" style="fill:#FF907A;" width="96" height="32"/>
		<rect x="336" y="335" style="fill:#FF512E;" width="24" height="32"/>
	</g>
	<g>
		<path d="M511,375v-47H400v47h16v73h-8v15h8v32h15v-32h49v32h15v-32h9v-15h-9v-73H511z M415,343h81v17h-81V343z M480,448h-49v-73    h49V448z"/>
		<path d="M351,272h-32v-92.054c5-5.571,8-12.91,8-20.946V16H24v143c0,8.036,4,15.376,8,20.946V272H0v159h40.895    c3.761,35,34.213,63.75,71.105,63.75c39.425,0,71.5-32.2,71.5-71.625s-32.075-71.313-71.5-71.313    C75.108,351.813,44.657,380,40.895,416H15V287h321v41h-80v47h16v41h-72v15h16v64h29.855l16.001-64H272v17h-8v15h8v32h15v-32h49v32    h15v-32h9v-15h-9v-73h16v-47h-16V272z M112,366.5c31.154,0,56.5,25.346,56.5,56.5s-25.346,56.5-56.5,56.5S55.5,454.154,55.5,423    S80.846,366.5,112,366.5z M55.5,175.5c-9.098,0-16.5-7.402-16.5-16.5v-16h33v16C72,168.098,64.598,175.5,55.5,175.5z M87,143h33    v16c0,9.098-7.402,16.5-16.5,16.5S87,168.098,87,159V143z M135,143h33v16c0,9.098-7.402,16.5-16.5,16.5S135,168.098,135,159V143z     M216,128h-33V31h33V128z M231,31h33v97h-33V31z M168,128h-33V31h33V128z M183,143h33v16c0,9.098-7.402,16.5-16.5,16.5    S183,168.098,183,159V143z M231,143h33v16c0,9.098-7.402,16.5-16.5,16.5c-9.098,0-16.5-7.402-16.5-16.5V143z M279,143h33v16    c0,9.098-7.402,16.5-16.5,16.5S279,168.098,279,159V143z M287,189.325c3,0.76,5.555,1.175,8.5,1.175s6.5-0.415,8.5-1.175V272h-17    V189.325z M312,128h-33V31h33V128z M120,31v97H87V31H120z M72,31v97H39V31H72z M47,189.325c3,0.76,5.555,1.175,8.5,1.175    s6.5-0.415,8.5-1.175V255h15v-75.054c1-0.19,0.585-0.383,0.75-0.577c5.783,6.803,14.518,11.131,24.125,11.131    s18.28-4.328,24.063-11.131c5.783,6.803,14.424,11.131,24.031,11.131c9.607,0,18.233-4.328,24.016-11.131    c5.782,6.803,14.401,11.131,24.008,11.131s18.221-4.328,24.004-11.131c5.783,6.803,14.395,11.131,24.002,11.131    c9.607,0,17.969-4.328,23.751-11.131c0.165,0.194,0.251,0.387,0.251,0.577V272h-17v-32h-71v32h-17v-32H96v32H47V189.325z M240,272    h-41v-17h41V272z M152,272h-41v-17h41V272z M234.145,480H231v-49h15.394L234.145,480z M336,448h-49v-17h33v-15h-33v-41h49V448z     M352,360h-81v-17h81V360z"/>
		<path d="M112,462.5c21.78,0,39.5-17.72,39.5-39.5s-17.72-39.5-39.5-39.5S72.5,401.22,72.5,423S90.22,462.5,112,462.5z M112,398.5    c13.51,0,24.5,10.99,24.5,24.5s-10.99,24.5-24.5,24.5S87.5,436.51,87.5,423S98.49,398.5,112,398.5z"/>
	</g>
</g>















</svg>
