<svg id="Layer_1" enable-background="new 0 0 512.015 512.015" height="512" viewBox="0 0 512.015 512.015" width="512" xmlns="http://www.w3.org/2000/svg"><g><g><path clip-rule="evenodd" d="m83.095 303.17c-7.54-7.54-19.899-7.54-27.439 0l-42.491 42.492c-7.54 7.54-7.54 19.871 0 27.44 41.924 41.897 83.848 83.822 125.772 125.747 7.54 7.54 19.899 7.54 27.439 0l42.463-42.492c7.568-7.54 7.568-19.871 0-27.44-41.896-41.897-83.82-83.822-125.744-125.747z" fill="#f37c7c" fill-rule="evenodd"/></g><g><path clip-rule="evenodd" d="m379.88 9.014c-2.381-2.154-6.123-2.013-8.22.425l-359.714 416.728c-6.378 7.087-5.811 18.142 1.304 24.52 7.087 6.378 18.113 5.811 24.519-1.276l376.835-401.307c2.183-2.353 1.928-6.095-.425-8.221z" fill="#ffd772" fill-rule="evenodd"/></g><g><path clip-rule="evenodd" d="m472.146 97.853c-2.154-2.381-5.896-2.636-8.22-.425l-401.297 376.844c-7.115 6.378-7.682 17.405-1.304 24.52 6.406 7.087 17.433 7.654 24.519 1.276l416.746-359.723c2.409-2.069 2.551-5.839.425-8.221z" fill="#ffd772" fill-rule="evenodd"/></g><g><path clip-rule="evenodd" d="m344.504 40.904-21.175 24.52 40.535 36.709 22.195-23.641z" fill="#f37c7c" fill-rule="evenodd"/></g><g><path clip-rule="evenodd" d="m292.687 100.915-21.09 24.435 38.183 34.384 22.025-23.471z" fill="#f37c7c" fill-rule="evenodd"/></g><g><path clip-rule="evenodd" d="m433.511 125.973-23.499 22.082 36.566 40.622 24.435-21.09z" fill="#f37c7c" fill-rule="evenodd"/></g><g><path clip-rule="evenodd" d="m375.826 180.144-23.527 22.111 34.355 38.155 24.435-21.09z" fill="#f37c7c" fill-rule="evenodd"/></g><g><path clip-rule="evenodd" d="m95.482 354.336-48.926 52.13-24.236 25.796c-3.855 4.28-9.439 6.208-14.797 5.613.028 4.734 1.956 9.411 5.726 12.813 7.087 6.378 18.113 5.811 24.519-1.276l25.03-26.674 49.776-53.009z" fill="#fbba58" fill-rule="evenodd"/></g><g><path clip-rule="evenodd" d="m292.687 144.342-178.411 190.01-18.794 19.984 17.093 15.393 17.943-19.135 179.262-190.86z" fill="#fbba58" fill-rule="evenodd"/></g><g><path clip-rule="evenodd" d="m314.74 120.842-22.053 23.5 17.093 15.392 22.025-23.471z" fill="#f37c7c" fill-rule="evenodd"/></g><g><path clip-rule="evenodd" d="m346.828 86.684-32.088 34.158 17.065 15.421 32.059-34.13z" fill="#fbba58" fill-rule="evenodd"/></g><g><path clip-rule="evenodd" d="m399.155 30.954-30.132 32.117 17.036 15.421 28.545-30.388c2.183-2.353 1.928-6.095-.425-8.221l-13.549-12.189c-.114 1.191-.596 2.325-1.475 3.26z" fill="#fbba58" fill-rule="evenodd"/></g><g><path clip-rule="evenodd" d="m369.023 63.071-22.195 23.613 17.036 15.449 22.195-23.641z" fill="#f37c7c" fill-rule="evenodd"/></g><g><path clip-rule="evenodd" d="m487.142 123.195-31.549 27.27 15.42 17.122 31.578-27.241c1.276-1.106 1.899-2.665 1.928-4.252 0-.028 0-.028 0-.057-.028-1.389-.51-2.806-1.502-3.912l-15.42-17.122c2.124 2.381 1.954 6.123-.455 8.192z" fill="#fbba58" fill-rule="evenodd"/></g><g><path clip-rule="evenodd" d="m455.592 150.465-24.434 21.062 15.42 17.15 24.435-21.09z" fill="#f37c7c" fill-rule="evenodd"/></g><g><path clip-rule="evenodd" d="m431.158 171.527-35.49 30.643 15.421 17.15 35.489-30.643z" fill="#fbba58" fill-rule="evenodd"/></g><g><path clip-rule="evenodd" d="m395.668 202.17-24.434 21.09 15.42 17.15 24.435-21.09z" fill="#f37c7c" fill-rule="evenodd"/></g><g><path clip-rule="evenodd" d="m371.234 223.26-197.544 170.507-20.523 17.745 15.42 17.122 21.458-18.511 196.609-169.713z" fill="#fbba58" fill-rule="evenodd"/></g><g><path clip-rule="evenodd" d="m153.167 411.512-54.51 47.056-28.233 24.35c-3.827 3.43-8.759 4.876-13.521 4.337 0 4.11 1.474 8.249 4.422 11.537 6.406 7.087 17.433 7.654 24.519 1.276l29.14-25.144 53.603-46.291z" fill="#fbba58" fill-rule="evenodd"/></g><path d="m508.588 127.109-30.881-34.29c-2.41-2.66-5.85-4.27-9.44-4.4-3.59-.12-6.95 1.14-9.47 3.54l-297.214 279.094-20.6-20.6 70.891-75.511c2.83-3.02 2.68-7.77-.34-10.6-3.02-2.84-7.76-2.69-10.6.33l-88.794 94.568-18.293-16.482 178.43-206.704 26.792 24.128-72.675 77.388c-2.84 3.02-2.69 7.77.33 10.6 3.02 2.84 7.77 2.69 10.6-.33l77.955-83.014c.024-.026.051-.048.074-.074.011-.012.02-.025.03-.037l104.714-111.507c2.41-2.59 3.65-5.99 3.49-9.55-.15-3.56-1.75-6.96-4.39-9.35l-34.281-30.861c-2.66-2.4-6.23-3.65-9.81-3.42-3.57.22-6.81 1.83-9.12 4.51l-264.504 306.415-13.08-13.08v-.01c-5.07-5.06-11.82-7.85-19.03-7.85-7.2 0-13.95 2.79-19.02 7.86l-42.492 42.49c-10.47 10.47-10.47 27.53 0 38.041 6.34 6.33 12.67 12.67 19.01 19l-20.56 23.81c-4.39 4.92-6.62 11.27-6.26 17.9.36 6.65 3.27 12.74 8.18 17.15 4.74 4.26 10.69 6.36 16.62 6.36 6.78 0 13.53-2.74 18.43-8.12l19.71-20.99c5.18 5.17 10.36 10.35 15.54 15.53l-20.98 19.71c-4.89 4.42-7.77 10.49-8.12 17.11-.35 6.63 1.89 13 6.33 17.96 4.91 5.42 11.68 8.18 18.48 8.18 5.91 0 11.83-2.08 16.56-6.3l23.82-20.56c6.34 6.34 12.67 12.67 19.01 19.01 5.25 5.24 12.13 7.86 19.02 7.86s13.78-2.62 19.03-7.86l42.451-42.481c5.08-5.06 7.88-11.81 7.88-19 .01-7.21-2.79-13.98-7.87-19.06l-13.08-13.08 81.811-70.621c3.14-2.7 3.48-7.44.78-10.57-2.71-3.14-7.45-3.49-10.58-.78l-103.817 89.604-16.455-18.286 199.049-186.916 24.119 26.785-77.753 67.123c-3.13 2.71-3.48 7.45-.77 10.58 2.7 3.14 7.44 3.48 10.57.78l199.463-172.193c2.67-2.3 4.27-5.52 4.5-9.08.24-3.579-.99-7.169-3.39-9.849zm-226.508-2.412 11.279-13.066 27.753 25.079-11.773 12.536zm41.913-48.554 29.18 26.426-21.79 23.204-28.219-25.5zm21.172-24.527 30.203 27.32-11.925 12.698-29.646-26.848zm30.971-35.879 31.75 28.571-22.248 23.691-30.668-27.742zm-357.656 352.076c-4.64-4.66-4.64-12.21-.01-16.85l42.491-42.491c2.32-2.32 5.37-3.48 8.42-3.48 3.04 0 6.09 1.16 8.41 3.48l13.87 13.87-54.971 63.671c-6.07-6.07-12.14-12.13-18.21-18.2zm13.821 76.461c-.03.04-.06.07-.09.11-3.65 4.03-9.91 4.36-13.95.72-1.94-1.74-3.09-4.15-3.23-6.79-.14-2.65.74-5.19 2.49-7.13.04-.04.07-.08.1-.12l66.422-76.948 17.828 16.063zm40.96-21.7 57.441-61.181 19.94 19.94-61.171 57.451c-5.4-5.41-10.81-10.81-16.21-16.21zm130.272 11.65c2.25 2.24 3.48 5.24 3.48 8.43s-1.23 6.16-3.48 8.4l-42.461 42.491c-4.64 4.64-12.19 4.64-16.83 0-6.08-6.08-12.15-12.15-18.23-18.23l63.661-54.951zm-45.635-6.254-42.527 36.704-34.431 29.721c-.04.03-.08.06-.11.1-4.04 3.63-10.29 3.3-13.92-.71-1.75-1.95-2.64-4.49-2.5-7.13s1.28-5.06 3.22-6.8c.05-.04.09-.08.13-.12l74.101-69.584zm289.351-249.758-26.749-29.715 12.573-11.807 27.249 30.236zm-35.492 30.64-25.436-28.259 23.242-21.825 26.33 29.249zm-48.971-6.159 12.598-11.83 25.017 27.793-13.077 11.289zm108.892-45.57-27.668-30.703 23.718-22.272 28.57 31.721z"/></g></svg>