<?xml version="1.0" encoding="iso-8859-1"?>
<!-- Generator: Adobe Illustrator 19.0.0, SVG Export Plug-In . SVG Version: 6.00 Build 0)  -->
<svg version="1.1" id="Capa_1" xmlns="http://www.w3.org/2000/svg" xmlns:xlink="http://www.w3.org/1999/xlink" x="0px" y="0px"
	 viewBox="0 0 512 512" style="enable-background:new 0 0 512 512;" xml:space="preserve">
<path style="fill:#DE9621;" d="M484.572,275.928C484.572,402.165,382.237,504.5,256,504.5S27.428,402.165,27.428,275.928v-39.856
	h457.144L484.572,275.928L484.572,275.928z"/>
<path style="fill:#F9A825;" d="M474.89,235.362l9.546-6.79l-0.011-0.428c-1.946-57.053-24.798-108.791-61.141-147.806
	c-0.151-0.163-0.303-0.325-0.455-0.487l-13.595,1.473l2.993-12.084l-0.405-0.369c-39.03-36.386-90.807-59.277-147.905-61.222
	L263.5,7.636L256,18.962l-7.5-11.327l-0.455,0.014c-57.279,1.96-109.196,25.003-148.261,61.599l-3.411,10.607h-7.196
	c-36.511,38.974-59.533,90.74-61.586,147.861l-0.027,0.855l5.17,9.417l-5.17,5.583c0.01,0.297,0.02,0.593,0.03,0.89
	c2.062,57.107,25.068,108.867,61.577,147.833H99.36l0.412,10.613c39.172,36.69,91.27,59.749,148.728,61.602l7.432-10.882
	l7.568,10.882c57.459-1.854,109.553-24.91,148.722-61.607l-7.325-18.511l17.938,7.909c36.604-39.079,59.642-91.022,61.59-148.319
	l0.012-0.408L474.89,235.362z"/>
<circle style="fill:#FFCA28;" cx="256" cy="236.07" r="188.34"/>
<path style="fill:#F9A825;" d="M170.903,321.706c20.895,14.729,44.529,23.978,70.219,26.718v21.237
	c0,8.22,6.851,14.729,15.072,14.729c8.221,0,14.729-6.509,14.729-14.729v-20.552c43.502-4.111,72.96-29.116,72.96-66.795
	c0-36.651-22.265-57.545-74.331-70.562v-65.767c11.646,2.74,23.293,7.878,35.281,15.071c3.426,2.055,6.851,3.083,10.276,3.083
	c10.619,0,19.182-8.221,19.182-18.839c0-8.221-4.796-13.358-10.276-16.441c-15.756-9.934-32.883-16.442-53.092-18.839v-7.536
	c0-8.221-6.508-14.729-14.729-14.729s-15.072,6.508-15.072,14.729v7.193c-42.817,3.425-71.932,28.773-71.932,65.424
	c0,38.706,23.292,57.546,73.303,70.562v67.48c-18.84-3.426-34.597-11.304-50.696-22.951c-3.082-2.397-7.193-3.768-11.304-3.768
	c-10.618,0-18.839,8.222-18.839,18.84C161.654,312.458,165.079,317.938,170.903,321.706z M269.552,252.171
	c26.375,8.221,33.911,17.469,33.911,32.54c0,16.442-11.989,27.403-33.911,29.801V252.171z M209.609,172.703
	c0-15.072,10.961-26.717,32.883-28.773v60.628C216.118,195.996,209.609,187.09,209.609,172.703z"/>
<path d="M256.194,391.89c-12.446,0-22.572-9.972-22.572-22.229V355.02c-23.985-3.607-46.469-12.708-66.925-27.103
	c-8.09-5.29-12.542-13.329-12.542-22.653c0-14.77,11.569-26.34,26.339-26.34c5.69,0,11.437,1.915,15.793,5.258
	c13.507,9.76,25.767,15.991,38.706,19.565v-52.343c-24.476-6.872-41.409-15.157-53-25.884
	c-13.662-12.645-20.303-29.137-20.303-50.419c0-20.039,7.745-37.588,22.398-50.751c12.655-11.368,29.675-18.703,49.534-21.406v-0.46
	c0-12.257,10.126-22.229,22.572-22.229c12.465,0,22.229,9.764,22.229,22.229v1.03c17.709,2.947,33.945,9.162,49.441,18.906
	c8.983,5.121,13.928,13.239,13.928,22.881c0,14.77-11.721,26.339-26.683,26.339c-4.786,0-9.542-1.396-14.134-4.15
	c-8.393-5.036-16.293-8.839-23.923-11.503v49.975c24.64,6.725,42.454,15.504,54.346,26.763
	c13.447,12.732,19.984,28.953,19.984,49.59c0,38.606-28.397,66.885-72.96,73.443v13.904
	C278.423,382.126,268.659,391.89,256.194,391.89z M180.493,293.924c-6.464,0-11.339,4.875-11.339,11.34
	c0,4.351,1.85,7.575,5.823,10.145l0.247,0.167c20.271,14.289,42.71,22.832,66.693,25.39l6.705,0.715v27.98
	c0,3.986,3.397,7.229,7.572,7.229c4.054,0,7.229-3.175,7.229-7.229v-27.377l6.794-0.642c40.813-3.857,66.166-26.59,66.166-59.328
	c0-32.761-19.889-51.096-68.649-63.286l-5.681-1.42v-81.092l9.218,2.169c12.017,2.828,24.258,8.042,37.422,15.941
	c2.258,1.354,4.357,2.014,6.417,2.014c6.551,0,11.683-4.981,11.683-11.339c0-2.693-0.669-6.651-6.453-9.905l-0.323-0.192
	c-15.522-9.786-31.87-15.588-49.977-17.736l-6.616-0.785v-14.199c0-4.054-3.175-7.229-7.229-7.229c-4.175,0-7.572,3.243-7.572,7.229
	v14.117l-6.902,0.552c-39.504,3.16-65.03,25.906-65.03,57.948c0,33.304,18.346,50.461,67.692,63.303l5.611,1.46v82.265l-8.842-1.608
	c-18.686-3.398-35.263-10.878-53.75-24.254l-0.208-0.156C185.431,294.742,182.927,293.924,180.493,293.924z M262.053,322.878v-80.9
	l9.731,3.033c23.518,7.33,39.18,16.886,39.18,39.7c0,20.548-15.176,34.476-40.596,37.257L262.053,322.878z M277.053,262.785v42.783
	c9.875-2.576,18.911-8.352,18.911-20.856C295.964,276.967,294.37,269.873,277.053,262.785z M249.993,214.879l-9.816-3.187
	c-27.395-8.894-38.067-19.825-38.067-38.989c0-20.059,15.206-33.945,39.683-36.24l8.2-0.769V214.879z M234.993,152.808
	c-8.702,2.277-17.883,7.595-17.883,19.895c0,7.865,1.449,14.238,17.883,21.13V152.808z"/>
<path d="M256,0c-44.363,0-87.597,12.377-125.028,35.794c-15.235,9.531-29.261,20.723-41.856,33.311
	c-0.014,0.014-0.03,0.025-0.044,0.04c-0.015,0.015-0.027,0.031-0.042,0.046c-17.463,17.47-32.165,37.629-43.471,59.805
	c-1.881,3.69-0.415,8.207,3.275,10.089c3.689,1.881,8.207,0.415,10.088-3.275c9.453-18.543,21.457-35.566,35.557-50.651
	l17.915,17.915c-30.807,33.24-50.243,77.152-52.073,125.5H35.065c0.761-22.815,4.985-45.191,12.608-66.617
	c1.389-3.903-0.649-8.192-4.552-9.581c-3.902-1.388-8.192,0.65-9.58,4.552c-9.033,25.388-13.613,52.016-13.613,79.145v39.856
	c0,63.057,24.556,122.34,69.144,166.928C133.66,487.444,192.943,512,256,512s122.34-24.556,166.928-69.144
	s69.144-103.871,69.144-166.928v-39.856c0-63.057-24.556-122.34-69.144-166.928C378.34,24.556,319.057,0,256,0z M263.5,15.14
	c53.744,1.78,104.159,22.663,143.42,59.406L389,92.466c-33.24-30.808-77.152-50.243-125.5-52.074V15.14z M105.087,74.552
	c10.38-9.7,21.693-18.442,33.841-26.042c32.931-20.601,70.666-32.073,109.572-33.382v25.264
	c-48.348,1.831-92.26,21.267-125.5,52.074L105.087,74.552z M256,55.235c99.714,0,180.837,81.124,180.837,180.838
	S355.713,416.91,256,416.91S75.163,335.787,75.163,236.073C75.163,136.358,156.286,55.235,256,55.235z M389,379.678l17.92,17.92
	c-31.698,29.666-70.66,49.006-112.782,56.289c-10.051,1.738-20.284,2.774-30.637,3.117v-25.253
	C311.848,429.921,355.76,410.486,389,379.678z M248.5,431.752v25.253c-10.354-0.343-20.587-1.379-30.638-3.117
	c-42.122-7.283-81.084-26.624-112.782-56.289l17.92-17.92C156.241,410.486,200.152,429.922,248.5,431.752z M60.321,243.573
	c1.83,48.348,21.266,92.259,52.073,125.5l-17.92,17.92c-36.744-39.261-57.626-89.675-59.406-143.419h25.253V243.573z
	 M412.322,432.25C370.567,474.004,315.051,497,256,497c-59.05,0-114.566-22.996-156.321-64.75
	c-25.638-25.638-44.205-56.469-54.717-90.116c0.788,1.564,1.599,3.118,2.422,4.665c5.323,9.998,11.385,19.612,18.095,28.738
	c7.153,9.728,15.055,18.925,23.594,27.464c44.587,44.588,103.87,69.144,166.927,69.144c57.146,0,111.191-20.167,154.009-57.135
	c13.598-11.74,25.863-25.008,36.514-39.475c6.711-9.126,12.764-18.726,18.088-28.726c0.826-1.551,1.638-3.108,2.428-4.676
	C456.527,375.781,437.96,406.612,412.322,432.25z M417.526,386.992l-17.92-17.92c30.807-33.24,50.243-77.151,52.073-125.499h25.253
	C475.152,297.317,454.27,347.731,417.526,386.992z M451.679,228.573c-1.83-48.348-21.266-92.26-52.073-125.5l17.92-17.92
	c36.744,39.262,57.626,89.676,59.406,143.42H451.679z"/>
<g>
</g>
<g>
</g>
<g>
</g>
<g>
</g>
<g>
</g>
<g>
</g>
<g>
</g>
<g>
</g>
<g>
</g>
<g>
</g>
<g>
</g>
<g>
</g>
<g>
</g>
<g>
</g>
<g>
</g>
</svg>
