<svg id="svg8726" height="512" viewBox="0 0 16.933333 16.933334" width="512" xmlns="http://www.w3.org/2000/svg" xmlns:svg="http://www.w3.org/2000/svg"><g id="layer1" transform="translate(0 -280.067)"><path id="path8998" d="m8.4666667 283.24166 6.3500003-.00001-.000002 5.55626h-6.3499991z" fill="#68b1fc"/><path id="path10041-5" d="m14.028084 283.24166-.0047 5.55625h.793239v-5.55625z" fill="#4fa4fb" font-variant-ligatures="normal" font-variant-position="normal" font-variant-caps="normal" font-variant-numeric="normal" font-variant-alternates="normal" font-feature-settings="normal" text-indent="0" text-align="start" text-decoration-line="none" text-decoration-style="solid" text-decoration-color="#000000" text-transform="none" text-orientation="mixed" white-space="normal" shape-padding="0" isolation="auto" mix-blend-mode="normal" solid-color="#000000" solid-opacity="1" vector-effect="none"/><path id="rect9000" d="m2.1166649 289.85625h12.6999991v4.23332h-12.6999991z" fill="#fcb860"/><path id="rect9097" d="m1.3229138 288.79791h14.2875002v1.05834h-14.2875002z" fill="#fcb860"/><path id="circle9099" d="m7.4083307 294.08957a2.1166668 2.1166668 0 0 1 -2.116667 2.11667 2.1166668 2.1166668 0 0 1 -2.1166659-2.11667 2.1166668 2.1166668 0 0 1 2.1166659-2.11667 2.1166668 2.1166668 0 0 1 2.116667 2.11667z" fill="#5a626e"/><path id="circle9105" d="m6.0854108 294.08957a.79374659.79374659 0 0 1 -.7937471.79375.79374659.79374659 0 0 1 -.793746-.79375.79374659.79374659 0 0 1 .793746-.79375.79374659.79374659 0 0 1 .7937471.79375z" fill="#e7ebef"/><path id="rect9107" d="m13.758338 294.08957h1.058336v2.11667h-1.058336z" fill="#515763"/><path id="rect9109" d="m3.7041669 288.7979h1.0583328v-2.11666h-1.0583328z" fill="#fc6067"/><path id="rect9113" d="m5.8208317 288.7979h1.0583331v-2.11666h-1.0583331z" fill="#fcb860"/><path id="path9037-6" d="m3.1751669 282.97708v.52918c0 .58631-.4720201 1.05833-1.0583401 1.05833-.58631 0-1.05833-.47202-1.05833-1.05833v-.52918z" fill="#fb4f56"/><path id="path9039-2" d="m5.2918069 282.97708v.52918c0 .58631-.4720201 1.05833-1.05834 1.05833-.5863201 0-1.0583301-.47202-1.0583301-1.05833v-.52918z" fill="#dbe1e7"/><path id="path9041-3" d="m7.4084368 282.97708v.52918c0 .58631-.4720101 1.05833-1.0583299 1.05833-.5863201 0-1.05834-.47202-1.05834-1.05833v-.52918z" fill="#fb4f56"/><path id="path9043-8" d="m9.5250771 282.97708v.52918c0 .58631-.4720202 1.05833-1.0583302 1.05833-.5863202 0-1.05834-.47202-1.05834-1.05833v-.52918z" fill="#dbe1e7"/><path id="path9045-4" d="m11.641717 282.97708v.52918c0 .58631-.47202 1.05833-1.05833 1.05833-.5863199 0-1.0583399-.47202-1.0583399-1.05833v-.52918z" fill="#fb4f56"/><path id="path9047-3" d="m13.758356 282.97708v.52918c0 .58631-.472019 1.05833-1.058339 1.05833-.586311 0-1.05833-.47202-1.05833-1.05833v-.52918z" fill="#dbe1e7"/><path id="path9049-0" d="m13.758327 282.97708v.52918c0 .58631.472019 1.05833 1.05834 1.05833.58632 0 1.058329-.47202 1.058329-1.05833v-.52918z" fill="#fb4f56"/><path id="path9051-2" d="m1.0583268 282.97708 1.32292-2.11667h12.1708302l1.32291 2.11667z" fill="#fc6067"/><path id="path7759-06-1" d="m4.2333328 280.86041-1.0583339 2.11666h2.116667l.79375-2.11666zm3.4395831 0-.2645831 2.11666h2.1166663l-.264583-2.11666zm3.1755161 0 .79375 2.11666h2.116667l-1.058335-2.11666z" fill="#e7ebef"/><path id="path10325-5" d="m1.8518208 284.56549v4.49609h.529298v-4.49609z" fill="#e7ebef" font-variant-ligatures="normal" font-variant-position="normal" font-variant-caps="normal" font-variant-numeric="normal" font-variant-alternates="normal" font-feature-settings="normal" text-indent="0" text-align="start" text-decoration-line="none" text-decoration-style="solid" text-decoration-color="#000000" text-transform="none" text-orientation="mixed" white-space="normal" shape-padding="0" isolation="auto" mix-blend-mode="normal" solid-color="#000000" solid-opacity="1" vector-effect="none"/><path id="path10525-2" d="m14.021882 289.85624c0 .00018.000002.00027 0 .00053v4.2323c.000002.00018 0 .00027 0 .00053h.794784v-4.23333z" fill="#fbb04f" font-variant-ligatures="normal" font-variant-position="normal" font-variant-caps="normal" font-variant-numeric="normal" font-variant-alternates="normal" font-feature-settings="normal" text-indent="0" text-align="start" text-decoration-line="none" text-decoration-style="solid" text-decoration-color="#000000" text-transform="none" text-orientation="mixed" white-space="normal" shape-padding="0" isolation="auto" mix-blend-mode="normal" solid-color="#000000" solid-opacity="1" vector-effect="none"/><path id="path11110-5" d="m13.805357 280.86041 1.223698 1.95957c.03379.0454.05204.10051.0522.15709h.793745l-1.322917-2.11666z" fill="#fb4f56" font-variant-ligatures="normal" font-variant-position="normal" font-variant-caps="normal" font-variant-numeric="normal" font-variant-alternates="normal" font-feature-settings="normal" text-indent="0" text-align="start" text-decoration-line="none" text-decoration-style="solid" text-decoration-color="#000000" text-transform="none" text-orientation="mixed" white-space="normal" shape-padding="0" isolation="auto" mix-blend-mode="normal" solid-color="#000000" solid-opacity="1" vector-effect="none"/><path id="path11112-6" d="m15.08125 282.97811v.52762c0 .41667-.196313.78795-.499711 1.03094.07579.0171.154014.0279.235127.0279.58632 0 1.058334-.47202 1.058334-1.05833v-.52813z" fill="#fb3b43" font-variant-ligatures="normal" font-variant-position="normal" font-variant-caps="normal" font-variant-numeric="normal" font-variant-alternates="normal" font-feature-settings="normal" text-indent="0" text-align="start" text-decoration-line="none" text-decoration-style="solid" text-decoration-color="#000000" text-transform="none" text-orientation="mixed" white-space="normal" shape-padding="0" isolation="auto" mix-blend-mode="normal" solid-color="#000000" solid-opacity="1" vector-effect="none"/><path id="path11114-6" d="m2.1166663 289.85624v.79324h12.6999997v-.79324z" fill="#fbb04f" font-variant-ligatures="normal" font-variant-position="normal" font-variant-caps="normal" font-variant-numeric="normal" font-variant-alternates="normal" font-feature-settings="normal" text-indent="0" text-align="start" text-decoration-line="none" text-decoration-style="solid" text-decoration-color="#000000" text-transform="none" text-orientation="mixed" white-space="normal" shape-padding="0" isolation="auto" mix-blend-mode="normal" solid-color="#000000" solid-opacity="1" vector-effect="none"/><path id="path11118-7" d="m14.817182 288.79791v1.05833h.793234v-1.05833z" fill="#fbb04f" font-variant-ligatures="normal" font-variant-position="normal" font-variant-caps="normal" font-variant-numeric="normal" font-variant-alternates="normal" font-feature-settings="normal" text-indent="0" text-align="start" text-decoration-line="none" text-decoration-style="solid" text-decoration-color="#000000" text-transform="none" text-orientation="mixed" white-space="normal" shape-padding="0" isolation="auto" mix-blend-mode="normal" solid-color="#000000" solid-opacity="1" vector-effect="none"/><path id="path13463-8" d="m2.3688458 280.59686c-.09467.008-.168666.0532-.212389.12299l-1.32239895 2.11718c-.02655.0421-.0407.0908-.04083.14056v.52917c.000103.63723.45637895 1.17187 1.05833395 1.29553v3.73207h-.529167c-.0084-.00053-.01689-.00053-.02532 0-.135344.0136-.2383609.12753-.238228.26355v1.05885c.0005821.14531.118236.26297.26355.26355h.529682v3.96926c.000016.14612.118465.26457.264584.26459h.8097702c.132601 1.18792 1.1424449 2.1177 2.3647138 2.1177 1.2222692 0 2.2326281-.92978 2.365229-2.1177h5.8378862v1.85208c-.00053.14612.11743.26504.263551.26562h1.05885c.146119-.00053.264107-.1195.263549-.26562.000529-2.02937.0011-4.05616.0011-6.08593h.528132c.146323.00079.265552-.11723.266134-.26355v-1.05885c-.000529-.14632-.119814-.2644-.266134-.26355h-.529179v-3.73156c.602876-.12265 1.058853-.65787 1.058853-1.29604v-.52917c.000264-.0496-.01326-.0983-.03927-.14056l-1.323952-2.11718c-.04837-.0763-.132353-.12272-.222723-.12299zm.158647.5271h1.277443l-.7942659 1.58801h-1.4748461zm1.8696541 0h1.306897l-.5963449 1.58801h-1.5043021zm1.871721 0h1.1048418l-.1979218 1.58801h-1.5027482zm1.6381439 0h1.120344l.1974033 1.58801h-1.5167034zm1.6536463 0h1.1032909l.596345 1.58801h-1.5017169zm1.6691479 0h1.305864l.794265 1.58801h-1.505852zm1.897557 0h1.277443l.991153 1.58801h-1.474846zm-11.8049632 2.11718h1.5880171v.26562c0 .4443-.3484011.79323-.7927161.79323-.444307 0-.7952289-.34888-.795301-.79323zm2.117183 0h1.5880159v.26562c0 .4443-.3504668.79323-.7947819.79323-.44432 0-.793247-.34893-.793234-.79323zm2.1171831 0h1.5880178v.26562c0 .4443-.3504689.79323-.794784.79323-.4443198 0-.793247-.34894-.7932338-.79323zm2.115116 0h1.5880192v.26562c0 .4443-.3484143.79323-.7927182.79323-.4443201 0-.7953111-.34894-.795301-.79323zm2.1171852 0h1.5880159v.26562c0 .4443-.348411.79323-.792715.79323-.44432 0-.7953139-.34894-.7953009-.79323zm2.1176989 0h1.5875v.26562c0 .4443-.350468.79323-.794782.79323-.444307 0-.792729-.34894-.792718-.79323zm2.117185 0h1.585431v.26562c0 .4443-.348395.79323-.792715.79323-.444316 0-.792729-.34894-.792716-.79323zm-6.6156182 1.04955c.190709.25664.469337.44503.7932341.5116v3.73207h-1.0588522v-1.85363c-.0005289-.14532-.1182338-.26297-.2635478-.26356h-.263549v-.26561c.00191-.14938-.1203942-.2706-.269751-.26769-.1453142.003-.2611331.12236-.259416.26769v.26561h-.266134c-.145314.00053-.2629721.11824-.263551.26356v1.85363h-.5291672v-1.85363c-.0005291-.14612-.1194959-.26411-.2656149-.26356h-.263551v-.26561c.0019-.14938-.1203941-.2706-.2697509-.26769-.145312.003-.2611331.12236-.259416.26769v.26561h-.266134c-.145314.00053-.2629692.11824-.2635491.26356v1.85363h-1.058333v-3.73156c.3242679-.0661.6026519-.25449.7937499-.51108.2413712.32408.6241942.53744 1.0578171.53744.4337641 0 .816936-.21369 1.0588501-.53795.2413418.32441.6244508.53795 1.0583328.53795.4340252 0 .8170072-.21388 1.0583331-.53847zm2.1166673.00053c.241914.32429.6255759.53795 1.0593679.53795.433498 0 .815914-.21351 1.057299-.53744.241374.32408.624199.53744 1.057817.53744.433763 0 .816936-.21369 1.058849-.53795.191203.25701.470059.44553.794784.51159l.00053 1.34927h-5.8223972l-.0005292-1.34927c.324403-.0661.6031595-.25484.7942655-.51159zm-5.5557342 2.65513h.5291669v1.58802h-.5291669zm2.117185 0h.529167v1.58802h-.529167zm2.6447989-.26511h5.8223842l-.000529 1.85313h-1.058852c-.384377-.0345-.384377.56162 0 .5271h1.85158v.52916h-13.7578172v-.52916h9.5234492c.384377.0345.384377-.56163 0-.5271h-2.3807312zm3.4261482 1.85314c-.337243.0403-.314048.51806.01291.5271h.265616c.363381.0321.393652-.52035.01447-.52762zm-9.7761482 1.58593h12.1708332v3.70468h-6.8951871c-.132098-1.18822-1.1431-2.11718-2.3657452-2.11718-1.2226449 0-2.233131.92896-2.3652319 2.11718h-.544669zm2.9099009 2.11718c1.0260121 0 1.851564.82556 1.851564 1.85157s-.8255519 1.85363-1.851564 1.85363c-1.0260118 0-1.8515679-.82762-1.8515679-1.85363s.8255561-1.85157 1.8515679-1.85157zm0 .79272c-.5813668 0-1.0583339.47748-1.0583339 1.05885 0 .58136.4769671 1.05833 1.0583339 1.05833.5813661 0 1.058849-.47697 1.058849-1.05833 0-.58137-.4774829-1.05885-1.058849-1.05885zm0 .52916c.2953832 0 .5291662.2343.5291662.52969 0 .29538-.233783.52917-.5291662.52917-.295384 0-.5291669-.23379-.5291669-.52917 0-.29539.2337829-.52969.5291669-.52969zm8.7328003.79479h.529166v1.58853h-.529166z" font-variant-ligatures="normal" font-variant-position="normal" font-variant-caps="normal" font-variant-numeric="normal" font-variant-alternates="normal" font-feature-settings="normal" text-indent="0" text-align="start" text-decoration-line="none" text-decoration-style="solid" text-decoration-color="#000000" text-transform="none" text-orientation="mixed" white-space="normal" shape-padding="0" isolation="auto" mix-blend-mode="normal" solid-color="#000000" solid-opacity="1" vector-effect="none"/></g></svg>