<svg id="Capa_1" enable-background="new 0 0 512 512" height="512" viewBox="0 0 512 512" width="512" xmlns="http://www.w3.org/2000/svg"><g><g clip-rule="evenodd" fill-rule="evenodd"><path d="m162.115 31.083h187.77c4.28 0 7.767 3.487 7.767 7.767v200.95c0 4.252-3.486 7.767-7.767 7.767h-187.77c-4.28 0-7.767-3.515-7.767-7.767v-200.95c.001-4.281 3.487-7.767 7.767-7.767z" fill="#f9f7f8"/><path d="m325.62 31.083h24.265c4.28 0 7.767 3.487 7.767 7.767v200.95c0 4.252-3.486 7.767-7.767 7.767h-24.265c4.28 0 7.767-3.515 7.767-7.767v-200.95c0-4.281-3.487-7.767-7.767-7.767z" fill="#ebe8fa"/><path d="m274.255 247.567v-84.474c0-4.252 3.515-7.767 7.767-7.767h31.352c4.28 0 7.768 3.515 7.768 7.767v84.474z" fill="#e27f84"/><path d="m198.626 155.327h31.352c4.279 0 7.767 3.515 7.767 7.767v31.352c0 4.28-3.487 7.767-7.767 7.767h-31.352c-4.252 0-7.768-3.486-7.768-7.767v-31.352c0-4.253 3.516-7.767 7.768-7.767z" fill="#9dc6fb"/><path d="m179.775 52.853v38.041c0 13.975-11.452 25.399-25.427 25.399s-25.427-11.424-25.427-25.399v-38.041z" fill="#b3e59f"/><path d="m230.602 52.853v38.041c0 13.975-11.452 25.399-25.428 25.399-13.975 0-25.398-11.424-25.398-25.399v-38.041z" fill="#80b4fb"/><path d="m281.427 52.853v38.041c0 13.975-11.452 25.399-25.427 25.399s-25.398-11.424-25.398-25.399v-38.041z" fill="#b3e59f"/><path d="m332.253 52.853v38.041c0 13.975-11.452 25.399-25.427 25.399-13.976 0-25.399-11.424-25.399-25.399v-38.041z" fill="#80b4fb"/><path d="m383.078 52.853v38.041c0 13.975-11.424 25.399-25.427 25.399-13.975 0-25.398-11.424-25.398-25.399v-38.041z" fill="#b3e59f"/><path d="m35.802 327.902h148.623c4.279 0 7.767 3.486 7.767 7.767v159.252c0 4.28-3.487 7.767-7.767 7.767h-148.623c-4.28 0-7.767-3.487-7.767-7.767v-159.253c0-4.28 3.486-7.766 7.767-7.766z" fill="#f9f7f8"/><path d="m327.575 327.902h148.651c4.28 0 7.767 3.486 7.767 7.767v159.252c0 4.28-3.486 7.767-7.767 7.767h-148.651c-4.252 0-7.767-3.487-7.767-7.767v-159.253c.001-4.28 3.515-7.766 7.767-7.766z" fill="#f9f7f8"/><path d="m160.159 327.902h24.266c4.279 0 7.767 3.486 7.767 7.767v159.252c0 4.28-3.487 7.767-7.767 7.767h-24.266c4.281 0 7.768-3.487 7.768-7.767v-159.253c0-4.28-3.487-7.766-7.768-7.766z" fill="#ebe8fa"/><path d="m451.961 327.902h24.266c4.28 0 7.767 3.486 7.767 7.767v159.252c0 4.28-3.486 7.767-7.767 7.767h-24.266c4.252 0 7.768-3.487 7.768-7.767v-159.253c-.001-4.28-3.516-7.766-7.768-7.766z" fill="#ebe8fa"/><path d="m124.867 502.688v-66.7c0-4.28 3.486-7.767 7.768-7.767h22.309c4.279 0 7.767 3.487 7.767 7.767v66.7z" fill="#e27f84"/><path d="m416.642 502.688v-66.7c0-4.28 3.486-7.767 7.767-7.767h22.309c4.28 0 7.768 3.487 7.768 7.767v66.7z" fill="#e27f84"/><path d="m65.283 428.221h22.309c4.28 0 7.767 3.487 7.767 7.767v22.309c0 4.28-3.486 7.767-7.767 7.767h-22.309c-4.28 0-7.768-3.486-7.768-7.767v-22.309c.001-4.281 3.488-7.767 7.768-7.767z" fill="#9dc6fb"/><path d="m357.085 428.221h22.309c4.28 0 7.768 3.487 7.768 7.767v22.309c0 4.28-3.487 7.767-7.768 7.767h-22.309c-4.281 0-7.768-3.486-7.768-7.767v-22.309c0-4.281 3.487-7.767 7.768-7.767z" fill="#9dc6fb"/><path d="m212.715 345.477-100.717 8.986-104.486-8.986 11.594-27.979c1.899-4.62 6.038-7.2 10.716-7.2h160.584c4.848 0 8.73 2.353 10.715 7.2z" fill="#e27f84"/><path d="m48.559 345.477v30.7c0 11.282-9.241 20.523-20.523 20.523-11.311 0-20.524-9.241-20.524-20.523v-30.7z" fill="#b3e59f"/><path d="m504.517 345.477-101.085 8.249-104.146-8.249 11.595-27.979c1.899-4.62 6.066-7.2 10.743-7.2h160.556c4.876 0 8.731 2.353 10.744 7.2z" fill="#e27f84"/><path d="m340.332 345.477v30.7c0 11.282-9.241 20.523-20.523 20.523s-20.523-9.241-20.523-20.523v-30.7z" fill="#b3e59f"/><path d="m89.576 345.477v30.7c0 11.282-9.213 20.523-20.494 20.523-11.311 0-20.523-9.241-20.523-20.523v-30.7z" fill="#80b4fb"/><path d="m381.378 345.477v30.7c0 11.282-9.241 20.523-20.523 20.523-11.281 0-20.522-9.241-20.522-20.523v-30.7z" fill="#80b4fb"/><path d="m130.622 345.477v30.7c0 11.282-9.213 20.523-20.523 20.523-11.282 0-20.522-9.241-20.522-20.523v-30.7z" fill="#b3e59f"/><path d="m422.424 345.477v30.7c0 11.282-9.24 20.523-20.522 20.523s-20.523-9.241-20.523-20.523v-30.7z" fill="#b3e59f"/><path d="m171.669 345.477v30.7c0 11.282-9.241 20.523-20.523 20.523s-20.523-9.241-20.523-20.523v-30.7z" fill="#80b4fb"/><path d="m463.47 345.477v30.7c0 11.282-9.241 20.523-20.522 20.523-11.282 0-20.523-9.241-20.523-20.523v-30.7z" fill="#80b4fb"/><path d="m212.715 345.477v30.7c0 11.282-9.241 20.523-20.523 20.523s-20.523-9.241-20.523-20.523v-30.7z" fill="#b3e59f"/><path d="m504.517 345.477v30.7c0 11.282-9.241 20.523-20.523 20.523-11.281 0-20.523-9.241-20.523-20.523v-30.7z" fill="#b3e59f"/><path d="m212.715 345.477h-24.266l-11.594-27.979c-2.013-4.847-5.867-7.2-10.743-7.2h24.293c4.848 0 8.73 2.353 10.715 7.2z" fill="#c9646d"/><path d="m504.517 345.477h-24.265l-11.594-27.979c-2.014-4.847-5.869-7.2-10.744-7.2h24.265c4.876 0 8.731 2.353 10.744 7.2z" fill="#c9646d"/><path d="m383.078 52.853c-84.728 0-169.428 0-254.156 0l15.08-36.369c1.984-4.848 5.84-7.172 10.743-7.172h202.538c5.073 0 8.674 2.211 10.743 7.172z" fill="#e27f84"/><path d="m383.078 52.853h-24.265l-15.052-36.369c-2.069-4.961-5.669-7.172-10.743-7.172h24.265c5.073 0 8.674 2.211 10.743 7.172z" fill="#c9646d"/></g><path d="m357.651 108.81c4.762 0 9.298-1.928 12.671-5.273 3.231-3.26 5.244-7.739 5.244-12.643v-30.558h-35.83v30.558c0 4.904 2.041 9.383 5.272 12.643 3.261 3.232 7.739 5.273 12.643 5.273zm-237.291 62.447c4.167 0 7.513 3.373 7.513 7.512s-3.346 7.512-7.513 7.512h-64.318v90.058c0 4.139-3.345 7.483-7.483 7.483-4.167 0-7.513-3.345-7.513-7.483v-97.57c0-4.139 3.346-7.512 7.513-7.512zm350.594 105.082c0 4.139-3.346 7.483-7.484 7.483-4.139 0-7.512-3.345-7.512-7.483v-90.058h-64.318c-4.139 0-7.513-3.373-7.513-7.512s3.374-7.512 7.513-7.512h71.83c4.139 0 7.484 3.373 7.484 7.512zm-349.516-223.486c0-1.219.283-2.381.822-3.43l17.802-42.974c1.248-3.004 4.082-4.648 7.229-4.648h217.76c3.345 0 6.18 2.183 7.144 5.216l17.547 42.407c.539 1.021.851 2.183.851 3.43v38.041c0 9.043-3.714 17.292-9.667 23.245-4.28 4.252-9.694 7.37-15.761 8.787v42.01c0 4.139-3.345 7.512-7.512 7.512-4.139 0-7.483-3.373-7.483-7.512v-42.01c-7.03-1.644-13.323-5.612-17.915-11.168-6.265 7.597-15.533 12.047-25.427 12.047-9.865 0-19.135-4.45-25.399-12.047-6.265 7.597-15.534 12.047-25.427 12.047-9.864 0-19.134-4.45-25.398-12.047-6.265 7.597-15.533 12.047-25.428 12.047-9.864 0-19.162-4.45-25.398-12.047-4.592 5.556-10.885 9.524-17.915 11.168v117.129h104.911v-84.729c0-4.139 3.345-7.484 7.483-7.484h46.887c4.139 0 7.512 3.345 7.512 7.484v84.729h21.515v-41.131c0-4.139 3.345-7.512 7.483-7.512 4.167 0 7.512 3.373 7.512 7.512v48.643c0 4.139-3.345 7.483-7.512 7.483-67.749 0-135.525 0-203.303 0-4.139 0-7.512-3.345-7.512-7.483v-124.642c-6.038-1.417-11.48-4.535-15.732-8.787-5.982-5.953-9.667-14.202-9.667-23.245v-38.041zm250.444-7.512-11.822-28.546h-208.121l-11.821 28.545c77.275.001 154.519.001 231.764.001zm-80.08 300.136c0-1.219.283-2.381.821-3.43l14.317-34.583c1.219-2.976 4.082-4.649 7.2-4.649h175.807c3.345 0 6.18 2.183 7.144 5.216l14.088 34.016c.538 1.021.822 2.183.822 3.43v30.7c0 7.71-3.147 14.74-8.221 19.814-3.373 3.373-7.597 5.896-12.331 7.2v29.509c0 4.139-3.345 7.483-7.455 7.483-4.139 0-7.483-3.345-7.483-7.483v-29.51c-4.989-1.389-9.525-4.167-13.04-7.965-5.301 5.726-12.728 8.986-20.522 8.986-7.824 0-15.223-3.26-20.523-8.986-5.301 5.726-12.699 8.986-20.522 8.986-7.796 0-15.222-3.26-20.523-8.986-5.301 5.726-12.699 8.986-20.523 8.986-7.795 0-15.222-3.26-20.522-8.986-3.516 3.798-8.051 6.576-13.04 7.965v92.014h81.866v-66.984c0-4.138 3.345-7.483 7.483-7.483h37.843c4.166 0 7.512 3.345 7.512 7.483v66.984h14.514v-28.517c0-4.139 3.345-7.483 7.483-7.483 4.11 0 7.455 3.345 7.455 7.483v36c0 4.139-3.345 7.512-7.455 7.512-54.737 0-109.447 0-164.185 0-4.394 0-7.455-3.77-7.455-8.164v-98.845c-4.733-1.304-8.957-3.827-12.331-7.2-5.074-5.074-8.221-12.104-8.221-19.814v-30.699zm201.517-7.513-8.362-20.155h-166.112l-8.361 20.155zm3.686 38.212v-23.216h-26.051v23.216c0 3.572 1.475 6.832 3.855 9.212 2.353 2.353 5.612 3.827 9.184 3.827s6.832-1.475 9.185-3.827c2.352-2.38 3.827-5.64 3.827-9.212zm-41.047 0v-23.216h-26.023v23.216c0 3.572 1.446 6.832 3.827 9.212 2.353 2.353 5.612 3.827 9.185 3.827 3.571 0 6.831-1.475 9.184-3.827 2.381-2.38 3.827-5.64 3.827-9.212zm-41.046 0v-23.216h-26.022v23.216c0 3.572 1.445 6.832 3.826 9.212 2.353 2.353 5.613 3.827 9.185 3.827s6.831-1.475 9.185-3.827c2.381-2.38 3.826-5.64 3.826-9.212zm-41.047 0v-23.216h-26.021v23.216c0 3.572 1.474 6.832 3.827 9.212 2.352 2.353 5.612 3.827 9.184 3.827s6.832-1.475 9.185-3.827c2.38-2.38 3.825-5.64 3.825-9.212zm-41.016 0v-23.216h-26.051v23.216c0 3.572 1.475 6.832 3.826 9.212 2.354 2.353 5.613 3.827 9.185 3.827s6.832-1.475 9.185-3.827c2.38-2.38 3.855-5.64 3.855-9.212zm16.468 44.561h37.844c4.139 0 7.483 3.345 7.483 7.483v37.843c0 4.139-3.345 7.512-7.483 7.512h-37.844c-4.139 0-7.512-3.374-7.512-7.512v-37.843c.001-4.138 3.374-7.483 7.512-7.483zm30.331 14.996h-22.848v22.847h22.848zm67.352 59.472v-59.472h-22.847v59.472zm-447-149.728c0-1.219.284-2.381.822-3.43l14.315-34.583c1.247-3.033 4.082-4.649 7.256-4.649h175.75c3.373 0 6.208 2.183 7.172 5.216l14.062 34.016c.538 1.021.85 2.183.85 3.43v30.7c0 7.71-3.146 14.74-8.222 19.814-3.373 3.373-7.625 5.896-12.33 7.2v29.509c0 4.139-3.345 7.483-7.483 7.483-4.11 0-7.455-3.345-7.455-7.483v-29.51c-5.018-1.389-9.524-4.167-13.067-7.965-5.301 5.726-12.699 8.986-20.523 8.986-7.795 0-15.193-3.26-20.523-8.986-5.302 5.726-12.699 8.986-20.523 8.986-7.795 0-15.193-3.26-20.522-8.986-5.301 5.726-12.699 8.986-20.494 8.986-7.824 0-15.223-3.26-20.523-8.986-3.543 3.798-8.079 6.576-13.068 7.965v92.014h81.865v-66.984c0-4.138 3.345-7.483 7.512-7.483h37.844c4.139 0 7.483 3.345 7.483 7.483v66.984h14.542v-28.517c0-4.139 3.345-7.483 7.455-7.483 4.139 0 7.483 3.345 7.483 7.483v36c0 4.195-3.486 7.512-7.597 7.512-54.681 0-109.361 0-164.043 0-4.423 0-7.483-3.77-7.483-8.164v-98.845c-4.706-1.304-8.958-3.827-12.331-7.2-5.077-5.074-8.224-12.103-8.224-19.814zm201.517-7.513-8.333-20.155h-166.141l-8.334 20.155zm3.713 38.212v-23.216h-26.05v23.216c0 3.572 1.474 6.832 3.826 9.212 2.353 2.353 5.613 3.827 9.185 3.827 3.571 0 6.831-1.475 9.185-3.827 2.381-2.38 3.854-5.64 3.854-9.212zm-41.045 0v-23.216h-26.05v23.216c0 3.572 1.474 6.832 3.826 9.212 2.353 2.353 5.612 3.827 9.185 3.827 3.572 0 6.832-1.475 9.213-3.827 2.352-2.38 3.826-5.64 3.826-9.212zm-41.046 0v-23.216h-26.051v23.216c0 3.572 1.474 6.832 3.826 9.212 2.382 2.353 5.613 3.827 9.185 3.827 3.571 0 6.832-1.475 9.213-3.827 2.352-2.38 3.827-5.64 3.827-9.212zm-41.046 0v-23.216h-26.051v23.216c0 3.572 1.474 6.832 3.827 9.212 2.381 2.353 5.612 3.827 9.213 3.827 3.571 0 6.803-1.475 9.184-3.827 2.353-2.38 3.827-5.64 3.827-9.212zm-41.047 0v-23.216h-26.051v23.216c0 3.572 1.475 6.832 3.827 9.212 2.381 2.353 5.641 3.827 9.213 3.827 3.571 0 6.803-1.475 9.184-3.827 2.353-2.38 3.827-5.64 3.827-9.212zm16.47 44.561h37.843c4.139 0 7.513 3.345 7.513 7.483v37.843c0 4.139-3.374 7.512-7.513 7.512h-37.843c-4.138 0-7.512-3.374-7.512-7.512v-37.843c0-4.138 3.374-7.483 7.512-7.483zm30.359 14.996h-22.847v22.847h22.847zm67.324 59.472v-59.472h-22.848v59.472zm169.542-404.311v-30.558h-35.831v30.558c0 4.904 2.041 9.383 5.272 12.643 3.261 3.232 7.74 5.273 12.644 5.273 4.933 0 9.411-2.041 12.643-5.273 3.259-3.26 5.272-7.739 5.272-12.643zm-50.826 0v-30.558h-35.83v30.558c0 4.904 2.013 9.383 5.272 12.643 3.26 3.232 7.738 5.273 12.643 5.273 4.933 0 9.411-2.041 12.643-5.273 3.259-3.26 5.272-7.739 5.272-12.643zm-50.825 0v-30.558h-35.831v30.558c0 4.904 2.013 9.383 5.272 12.643 3.26 3.232 7.739 5.273 12.643 5.273 4.933 0 9.412-2.041 12.644-5.273 3.259-3.26 5.272-7.739 5.272-12.643zm-50.826 0v-30.558h-35.83v30.558c0 4.904 2.013 9.383 5.273 12.643 3.26 3.232 7.711 5.273 12.643 5.273 4.762 0 9.27-1.928 12.643-5.273 3.258-3.26 5.271-7.739 5.271-12.643zm18.594 56.949h46.887c4.139 0 7.512 3.345 7.512 7.484v46.885c0 4.139-3.373 7.483-7.512 7.483h-46.887c-4.139 0-7.482-3.345-7.482-7.483v-46.885c0-4.139 3.344-7.484 7.482-7.484zm39.375 14.995h-31.863v31.862h31.863zm83.397 77.217v-77.217h-31.863v77.217z"/></g></svg>