<svg id="Layer_1" enable-background="new 0 0 511.974 511.974" height="512" viewBox="0 0 511.974 511.974" width="512" xmlns="http://www.w3.org/2000/svg"><g><g clip-rule="evenodd" fill-rule="evenodd"><path d="m163.629 365.496s9.697-41.214-14.032-47.572c-10.86-2.91-12.229-15.061-38.871-26.189-13.532-5.652-34.234-3.85-43.013-12.523-17.425-17.215-24.626-40.353-48.058-40.412-8.243 17.347-11.814 34.838-8.385 51.606 4.067 19.89 10.826 35.819 19.857 48.267 23.043 31.762 60.879 40.854 106.545 35.215 7.972-.984 16.705-3.943 25.957-8.392z" fill="#ff5a58"/><path d="m149.597 317.924c23.729 6.358 14.032 47.572 14.032 47.572 24.885-11.964 53.525-34.695 81.206-58.716 0 0 9.295-32.915-11.262-46.363-15.795-10.333-8.999-19.646-35.64-30.774-13.531-5.652-42.484-6.851-51.263-15.523-17.425-17.215-41.651-50.43-65.083-50.489-25.996 22.676-49.38 48.754-61.932 75.168 23.432.059 30.633 23.197 48.058 40.412 8.779 8.673 29.481 6.871 43.013 12.523 26.641 11.129 28.011 23.28 38.871 26.19z" fill="#ff9c9b"/><path d="m146.669 214.121c8.778 8.672 37.732 9.872 51.263 15.523 26.641 11.127 19.845 20.441 35.64 30.774 20.558 13.448 11.262 46.363 11.262 46.363 18.885-16.388 37.323-33.376 53.817-47.955 12.761-11.279 24.499-20.024 35.382-26.803 0 0 6.297-32.487-14.26-45.935-15.795-10.332-11.25-19.272-37.89-30.399-13.531-5.651-48.11-9.851-56.888-18.523-17.424-17.215-21.901-38.691-45.333-38.75-4.415 2.059-8.788 4.215-13.099 6.473-24.051 12.595-56.123 33.573-84.977 58.742 23.432.06 47.658 33.275 65.083 50.49z" fill="#ff5a58"/><path d="m281.883 155.689c26.641 11.127 22.095 20.066 37.89 30.399 20.557 13.448 14.26 45.935 14.26 45.935 37.475-23.342 64.822-23.373 88.972-23.299 0 0 11.741-27.88-8.816-41.327-15.794-10.332-7.32-18.256-27.96-35.007-11.384-9.24-26.736-15.851-35.513-24.523-17.424-17.214-13.329-39.748-37.511-47.682-33.396 5.114-85.936 16.028-133.543 38.231 23.432.059 27.908 21.535 45.333 38.75 8.778 8.672 43.358 12.872 56.888 18.523z" fill="#ff9c9b"/><path d="m386.23 132.39c20.64 16.751 12.165 24.675 27.96 35.007 20.557 13.447 8.816 41.327 8.816 41.327 11.51.035 22.294.094 33.102-2.335 7.782-1.749 14.372-4.834 19.768-8.95 48.533-37.02.482-157.446-145.351-139.641-4.908.599-10.742 1.381-17.319 2.388 24.182 7.934 20.087 30.469 37.511 47.682 8.777 8.671 24.128 15.282 35.513 24.522z" fill="#ff5a58"/><path d="m334.034 232.023c-10.883 6.779-22.621 15.524-35.382 26.803-16.495 14.579-34.933 31.567-53.817 47.955-27.681 24.021-56.321 46.752-81.206 58.716-9.252 4.448-17.985 7.408-25.957 8.392-45.665 5.639-83.501-3.454-106.544-35.215-1.798 44.489 23.482 100.143 92.823 96.576 0 0 59.951 44.239 147.349 3.568 0 0 91.732 2.141 119.179-77.061 0 0 74.396 6.421 92.454-59.223 33.225-32.822 17.819-83.92-7.056-105.095-5.396 4.116-11.986 7.201-19.768 8.95-10.808 2.429-21.592 2.37-33.102 2.335-24.151-.074-51.498-.043-88.973 23.299z" fill="#fff"/></g><g><path d="m511.929 253.694c-.657-20.244-8.961-41.218-21.764-56.073 11.583-13.434 16.501-32.482 12.783-53.975-4.868-28.141-23.466-54.561-51.025-72.484-22.595-14.696-62.209-30.666-122.61-23.292-36.731 4.484-107.321 16.704-167.388 48.161-29.28 15.333-73.035 44.37-108.029 79.881-41.31 41.919-59.437 82.203-52.423 116.498 3.961 19.371 10.511 35.831 19.578 49.274-.368 30.415 10.693 59.555 29.853 78.363 17.655 17.33 41.857 26.056 70.204 25.318 6.004 3.78 20.468 11.814 41.496 16.664 9.662 2.228 21.51 3.934 35.144 3.934 21.384 0 47.154-4.195 75.754-17.153 6.9-.121 27.399-1.214 50.442-9.398 34.979-12.426 60.207-35.679 73.369-67.492 7.997-.102 21.312-1.09 35.638-5.623 29.814-9.436 50.125-29.656 58.889-58.569 13.826-14.622 20.764-33.246 20.089-54.034zm-70.911-165.767c22.91 14.9 38.299 36.452 42.222 59.128 3.46 20.002-2.426 43.53-29.325 49.576-5.865 1.318-11.77 1.818-18.035 2.001 1.955-14.417-1.553-30.014-16.215-39.605-5.142-3.362-6.175-5.648-8.233-10.202-2.67-5.907-6.328-13.996-18.899-24.199-5.689-4.618-11.982-8.458-18.067-12.171-6.56-4.003-12.755-7.784-16.72-11.7-5.758-5.689-8.712-12.297-11.839-19.293-2.125-4.752-4.368-9.764-7.555-14.444 50.66-4.783 83.67 8.554 102.666 20.909zm-96.305 126.69c-.981-12.364-5.344-27.661-19.465-36.898-4.886-3.196-7.148-6.049-10.013-9.661-5.158-6.502-11.003-13.872-29.497-21.597-5.871-2.452-14.386-4.474-23.401-6.613-10.042-2.384-26.849-6.373-30.313-9.796-4.938-4.878-8.845-10.332-12.625-15.605-3.987-5.565-8.221-11.466-13.654-16.242 39.305-15.206 79.583-23.472 106.454-27.73 8.032 3.324 10.94 9.067 15.447 19.149 3.569 7.982 7.613 17.03 16.042 25.357 5.618 5.551 13.111 10.123 20.357 14.545 5.522 3.37 11.233 6.854 15.882 10.628 8.899 7.222 11.026 11.928 13.278 16.909 2.575 5.694 5.492 12.148 15.51 18.7 8.707 5.696 8.328 16.08 6.862 22.967-19.686.15-42.457 1.768-70.864 15.887zm-276.572-24.667c5.409-5.489 11.041-10.813 16.796-15.949 6.505 1.311 14.329 6.239 23.798 14.987 1.923 1.776 4.356 2.654 6.783 2.654 2.692 0 5.377-1.081 7.348-3.214 3.748-4.057 3.497-10.384-.56-14.132-7.132-6.588-13.751-11.509-20.066-14.905 24.726-19.787 50.018-35.722 68.963-45.644 3.462-1.813 6.971-3.557 10.512-5.239 8.966.762 13.473 6.484 21.426 17.585 4.067 5.678 8.678 12.111 14.826 18.187 6.931 6.848 20.239 10.396 39.75 15.026 7.839 1.861 15.945 3.785 20.312 5.609 13.736 5.737 17.351 10.294 21.536 15.57 3.346 4.219 7.139 9.001 14.734 13.969 11.044 7.225 11.019 24.127 10.393 31.695-10.19 6.655-21.046 14.914-32.663 25.182-6.587 5.822-13.372 11.927-20.555 18.391-4.855 4.368-9.84 8.854-14.914 13.383-1.184-11.123-5.574-23.246-17.514-31.057-4.693-3.07-6.483-5.739-8.96-9.435-4.307-6.422-9.666-14.415-28.298-22.197-2.589-1.082-5.72-2.08-9.572-3.051-5.359-1.344-10.791 1.898-12.14 7.254-1.35 5.355 1.898 10.791 7.253 12.141 2.878.725 5.084 1.415 6.749 2.11 13.083 5.464 15.869 9.62 19.397 14.882 2.909 4.339 6.53 9.738 14.623 15.032 11.389 7.45 9.056 25.742 7.72 32.566-20.309 17.524-41.14 34.274-60.142 46.081-.004-18.038-6.155-34.523-23.491-39.168-1.916-.514-3.457-1.971-6.761-5.217-5.399-5.305-13.559-13.321-30.844-20.541-6.657-2.78-14.071-3.949-21.241-5.079-7.363-1.161-15.709-2.477-18.599-5.331-4.777-4.72-8.877-10.165-12.842-15.432-7.169-9.522-15.053-19.984-27.093-24.944 9.29-15.498 21.666-29.927 33.336-41.769zm-42.35 59.771c7.243 2.301 12.521 8.868 20.129 18.974 4.193 5.569 8.945 11.882 14.764 17.63 7.47 7.381 18.69 9.149 29.541 10.859 6.002.946 12.208 1.924 16.646 3.778 13.728 5.733 19.72 11.622 24.536 16.353 4.188 4.115 8.52 8.371 15.602 10.269 9.7 2.599 9.209 20.596 7.703 31.033-6.522 2.793-12.654 4.654-18.266 5.347-65.583 8.101-103.325-16.618-115.379-75.562-2.598-12.705-.372-25.852 4.724-38.681zm450.112 45.698c-1.248 1.232-2.149 2.771-2.614 4.462-6.478 23.549-21.885 39.417-45.793 47.161-18.777 6.081-36.01 4.765-36.159 4.752-4.563-.405-8.809 2.361-10.309 6.688-10.271 29.64-31.53 50.455-63.187 61.869-24.391 8.795-46.116 8.461-46.31 8.469-1.538-.035-3.06.282-4.453.931-33.823 15.739-67.143 20.114-99.033 13.005-23.888-5.326-38.048-15.474-38.159-15.554-1.861-1.374-4.146-2.078-6.451-1.939-24.379 1.257-44.071-5.303-58.523-19.489-10.458-10.266-17.893-24.574-21.469-40.582 2.407 1.772 4.9 3.437 7.489 4.98 17.049 10.161 38.079 15.269 62.738 15.269 8.028 0 16.441-.541 25.227-1.626 41.353-5.106 96.924-55.107 145.954-99.223 7.149-6.433 13.902-12.508 20.423-18.271 54.071-47.791 88.057-47.668 118.06-47.595 11.916.044 23.173.071 34.966-2.579 5.914-1.33 11.336-3.371 16.23-6.016 10.091 11.399 16.893 28.327 17.409 44.214.362 11.153-2.126 27.333-16.036 41.074z"/><path d="m413.261 248.048h-.007c-5.523 0-9.997 4.478-9.997 10s4.481 10 10.004 10 10-4.478 10-10-4.477-10-10-10z"/><path d="m344.253 305.048h-.007c-5.523 0-9.997 4.478-9.997 10s4.481 10 10.004 10 10-4.478 10-10-4.477-10-10-10z"/><path d="m252.753 366.548h-.007c-5.523 0-9.997 4.478-9.997 10s4.481 10 10.004 10 10-4.478 10-10-4.477-10-10-10z"/><path d="m146.669 224.121c5.523 0 10-4.478 10-10s-4.477-10-10-10h-.007c-5.523 0-9.996 4.478-9.996 10s4.48 10 10.003 10z"/></g></g></svg>