<svg id="svg8726" height="512" viewBox="0 0 16.933333 16.933334" width="512" xmlns="http://www.w3.org/2000/svg" xmlns:svg="http://www.w3.org/2000/svg"><g id="layer1" transform="translate(0 -280.067)"><path id="path10442" d="m1.5864549 286.94684v5.02501c0 1.31465 1.068684 2.38281 2.383319 2.38281h8.9937651c1.314646 0 2.3828-1.06818 2.3828-2.38281v-5.02501z" fill="#e7ebef" font-variant-ligatures="normal" font-variant-position="normal" font-variant-caps="normal" font-variant-numeric="normal" font-variant-alternates="normal" font-feature-settings="normal" text-indent="0" text-align="start" text-decoration-line="none" text-decoration-style="solid" text-decoration-color="#000000" text-transform="none" text-orientation="mixed" white-space="normal" shape-padding="0" isolation="auto" mix-blend-mode="normal" solid-color="#000000" solid-opacity="1" vector-effect="none"/><path id="path10651" d="m14.288006 286.94684v5.02501c0 1.31463-1.068155 2.38281-2.382801 2.38281h1.058334c1.314646 0 2.3828-1.06818 2.3828-2.38281v-5.02501z" fill="#dbe1e7" font-variant-ligatures="normal" font-variant-position="normal" font-variant-caps="normal" font-variant-numeric="normal" font-variant-alternates="normal" font-feature-settings="normal" text-indent="0" text-align="start" text-decoration-line="none" text-decoration-style="solid" text-decoration-color="#000000" text-transform="none" text-orientation="mixed" white-space="normal" shape-padding="0" isolation="auto" mix-blend-mode="normal" solid-color="#000000" solid-opacity="1" vector-effect="none"/><path id="path10674" d="m1.5864549 286.94684v4.20853c.08684.0148.175533.0238.266134.0238.638593.00012 1.05455-.42709 1.353923-.74879.306512-.32938.599927-.69195.991153-1.03973.787152-.6997 1.920957-1.38545 4.270026-1.38545 2.3490581 0 3.4798981.6854 4.2674381 1.38545.391221.34777.684636.71036.991156 1.03973.299588.32194.715851.74891 1.354439.74879.09042 0 .178917-.009.265615-.0238v-4.20853z" fill="#dbe1e7" font-variant-ligatures="normal" font-variant-position="normal" font-variant-caps="normal" font-variant-numeric="normal" font-variant-alternates="normal" font-feature-settings="normal" text-indent="0" text-align="start" text-decoration-line="none" text-decoration-style="solid" text-decoration-color="#000000" text-transform="none" text-orientation="mixed" white-space="normal" shape-padding="0" isolation="auto" mix-blend-mode="normal" solid-color="#000000" solid-opacity="1" vector-effect="none"/><path id="path10418" d="m8.4676909 282.71247c-4.860494 0-7.93749988 2.71638-7.93749988 5.55625 0 .55121.06227 1.10618.250113 1.55701.09392.22541.22103798.42798.39997598.57981.178935.15182.4150759.24443.6723089.24443.396891.00008.679222-.27178.966351-.58032.287126-.30855.599025-.69363 1.027327-1.07436.856604-.76145 2.163582-1.51928 4.621424-1.51928 2.4578341 0 3.7622351.75783 4.6188391 1.51928.4283.38073.740201.76582 1.027327 1.07436s.569979.5804.966867.58032c.257233 0 .492858-.0926.671793-.24443.178938-.15183.30657-.3544.400492-.57981.187844-.45083.252182-1.0058.252182-1.55701 0-2.83987-3.077006-5.55625-7.9375001-5.55625z" fill="#fc6067" font-variant-ligatures="normal" font-variant-position="normal" font-variant-caps="normal" font-variant-numeric="normal" font-variant-alternates="normal" font-feature-settings="normal" text-indent="0" text-align="start" text-decoration-line="none" text-decoration-style="solid" text-decoration-color="#000000" text-transform="none" text-orientation="mixed" white-space="normal" shape-padding="0" isolation="auto" mix-blend-mode="normal" solid-color="#000000" solid-opacity="1" vector-effect="none"/><path id="path10687" d="m8.4676909 282.71247c-.179051 0-.35502.005-.529167.0119 4.5532441.18934 7.4083341 2.80909 7.4083341 5.54437 0 .55121-.06434 1.10618-.252182 1.55701-.09392.22541-.221555.42798-.400492.57981-.03621.0307-.07623.0571-.11679.0827.150484.0985.313677.16178.50333.16174.257233 0 .492858-.0926.671793-.24443.178938-.15182.30657-.35439.400492-.5798.187844-.45083.252182-1.00581.252182-1.55702 0-2.83987-3.077006-5.55625-7.9375001-5.55625z" fill="#fb4f56" font-variant-ligatures="normal" font-variant-position="normal" font-variant-caps="normal" font-variant-numeric="normal" font-variant-alternates="normal" font-feature-settings="normal" text-indent="0" text-align="start" text-decoration-line="none" text-decoration-style="solid" text-decoration-color="#000000" text-transform="none" text-orientation="mixed" white-space="normal" shape-padding="0" isolation="auto" mix-blend-mode="normal" solid-color="#000000" solid-opacity="1" vector-effect="none"/><path id="path10435" d="m8.4676909 282.71247c-.651367 0-1.269442.0503-1.853634.1416v11.50059h3.7051991v-11.50059c-.5836001-.0911-1.2009521-.1416-1.8515651-.1416z" fill="#5a626e" font-variant-ligatures="normal" font-variant-position="normal" font-variant-caps="normal" font-variant-numeric="normal" font-variant-alternates="normal" font-feature-settings="normal" text-indent="0" text-align="start" text-decoration-line="none" text-decoration-style="solid" text-decoration-color="#000000" text-transform="none" text-orientation="mixed" white-space="normal" shape-padding="0" isolation="auto" mix-blend-mode="normal" solid-color="#000000" solid-opacity="1" vector-effect="none"/><path id="path7613-1" d="m11.956365 283.24681c.07498.3804.22347 1.24897.247531 2.28358.01968.84628-.05125 1.79162-.301273 2.65255.171879.0871.329216.17997.477491.27544.305295-.97053.374351-2.02115.352949-2.94143-.02016-.86644-.120962-1.58825-.202054-2.05879-.185561-.0759-.377534-.1459-.574644-.21135zm-6.9794171.00053c-.19716.0655-.389043.13589-.574643.21187-.08107.47062-.182436 1.19197-.202571 2.05776-.02141.92031.04814 1.97086.353465 2.94142.148206-.0953.30571-.18791.477491-.27492-.250134-.86106-.320958-1.80663-.301273-2.65307.02405-1.03427.172527-1.90246.247531-2.28306zm9.1121051 1.05678c.185607.68675.736113 3.19159-.42013 5.27306.135507.14823.256908.28572.375687.416 1.113288-1.84319.935038-3.98226.710552-5.15576-.204105-.18732-.427574-.36508-.666109-.5333zm-11.2453081.002c-.238866.1686-.461815.34709-.66611.53485-.224211 1.17418-.401765 3.31108.710552 5.15266.118851-.13037.240599-.26768.376203-.416-1.155605-2.08032-.60656-4.58312-.420645-5.27151z" fill="#fd959a" font-variant-ligatures="normal" font-variant-position="normal" font-variant-caps="normal" font-variant-numeric="normal" font-variant-alternates="normal" font-feature-settings="normal" text-indent="0" text-align="start" text-decoration-line="none" text-decoration-style="solid" text-decoration-color="#000000" text-transform="none" text-orientation="mixed" white-space="normal" shape-padding="0" isolation="auto" mix-blend-mode="normal" solid-color="#000000" solid-opacity="1" vector-effect="none"/><g fill="#dbe1e7"><path id="path10482" d="m5.6337539 289.40353-.793234.79479c-.269224.26975.103267.64224.373105.3731l.794781-.79271c.261665-.26099-.133757-.61654-.374652-.37518z" font-variant-ligatures="normal" font-variant-position="normal" font-variant-caps="normal" font-variant-numeric="normal" font-variant-alternates="normal" font-feature-settings="normal" text-indent="0" text-align="start" text-decoration-line="none" text-decoration-style="solid" text-decoration-color="#000000" text-transform="none" text-orientation="mixed" white-space="normal" shape-padding="0" isolation="auto" mix-blend-mode="normal" solid-color="#000000" solid-opacity="1" vector-effect="none"/><path id="path10480" d="m10.924386 289.77871.7953.79271c.247933.28944.662546-.12517.373105-.3731l-.793234-.79479c-.255111-.2556-.630161.12101-.375171.37518z" font-variant-ligatures="normal" font-variant-position="normal" font-variant-caps="normal" font-variant-numeric="normal" font-variant-alternates="normal" font-feature-settings="normal" text-indent="0" text-align="start" text-decoration-line="none" text-decoration-style="solid" text-decoration-color="#000000" text-transform="none" text-orientation="mixed" white-space="normal" shape-padding="0" isolation="auto" mix-blend-mode="normal" solid-color="#000000" solid-opacity="1" vector-effect="none"/><path id="path10476" d="m3.5165709 291.89589.794782.79272c.247938.28941.662522-.12517.373105-.37311l-.793234-.79478c-.239697-.24017-.643911.10661-.374653.37517z" font-variant-ligatures="normal" font-variant-position="normal" font-variant-caps="normal" font-variant-numeric="normal" font-variant-alternates="normal" font-feature-settings="normal" text-indent="0" text-align="start" text-decoration-line="none" text-decoration-style="solid" text-decoration-color="#000000" text-transform="none" text-orientation="mixed" white-space="normal" shape-padding="0" isolation="auto" mix-blend-mode="normal" solid-color="#000000" solid-opacity="1" vector-effect="none"/><path id="path13985-58" d="m13.041571 291.52072-.792718.79478c-.289417.24794.125166.66252.373105.37311l.794781-.79272c.282446-.28171-.13436-.61661-.375168-.37517z" font-variant-ligatures="normal" font-variant-position="normal" font-variant-caps="normal" font-variant-numeric="normal" font-variant-alternates="normal" font-feature-settings="normal" text-indent="0" text-align="start" text-decoration-line="none" text-decoration-style="solid" text-decoration-color="#000000" text-transform="none" text-orientation="mixed" white-space="normal" shape-padding="0" isolation="auto" mix-blend-mode="normal" solid-color="#000000" solid-opacity="1" vector-effect="none"/></g><path id="path4861" d="m8.4676909 282.71247c-.179321 0-.355423.004-.529685.0119.458372.0196.899837.0637 1.322917.12971v11.50059h1.0583331v-11.50058c-.5836001-.0911-1.2009521-.1416-1.8515651-.1416z" fill="#515763" font-variant-ligatures="normal" font-variant-position="normal" font-variant-caps="normal" font-variant-numeric="normal" font-variant-alternates="normal" font-feature-settings="normal" text-indent="0" text-align="start" text-decoration-line="none" text-decoration-style="solid" text-decoration-color="#000000" text-transform="none" text-orientation="mixed" white-space="normal" shape-padding="0" isolation="auto" mix-blend-mode="normal" solid-color="#000000" solid-opacity="1" vector-effect="none"/></g></svg>