<svg id="Capa_1" enable-background="new 0 0 512 512" height="512" viewBox="0 0 512 512" width="512" xmlns="http://www.w3.org/2000/svg"><path d="m493.791 264.893-37.388-24.925-27.702-117.734c-2.556-10.863-12.249-18.54-23.408-18.54h-381.761c-8.854 0-16.032 7.178-16.032 16.032v240.484c0 8.854 7.178 16.032 16.032 16.032h464.935c8.854 0 16.032-7.178 16.032-16.032v-75.307c.001-8.041-4.017-15.55-10.708-20.01z" fill="#ffc269"/><path d="m288.065 264.016h-240.484c-4.427 0-8.016-3.589-8.016-8.016v-120.242h256.516v120.242c0 4.427-3.589 8.016-8.016 8.016z" fill="#785353"/><path d="m271.366 265.349h-206.366v-88.177c0-8.854 7.178-16.032 16.032-16.032h174.301c8.854 0 16.032 7.178 16.032 16.032v88.177z" fill="#966a5b"/><path d="m151.79 167.823h-72.145c-4.427 0-8.016 3.589-8.016 8.016v88.177h88.177v-88.177c0-4.427-3.588-8.016-8.016-8.016z" fill="#dbeaff"/><path d="m23.532 103.694c-8.854 0-16.032 7.178-16.032 16.032v240.484c0 8.854 7.178 16.032 16.032 16.032h464.935c8.854 0 16.032-7.178 16.032-16.032v-8.016h-464.059c-4.427 0-8.016-3.589-8.016-8.016v-240.484z" fill="#ffa95f"/><path d="m231.952 223.935v40.081h32.065v-40.081c0-4.427-3.589-8.016-8.016-8.016h-16.032c-4.428 0-8.017 3.589-8.017 8.016z" fill="#e5646e"/><path d="m199.887 239.968v24.048h32.065v-24.048c0-4.427-3.589-8.016-8.016-8.016h-16.032c-4.428 0-8.017 3.589-8.017 8.016z" fill="#dbeaff"/><path d="m312.113 87.661h-288.581l16.033 48.097h256.516z" fill="#c8c5c9"/><circle cx="119.726" cy="376.242" fill="#5d5360" r="48.097"/><circle cx="119.726" cy="376.242" fill="#eceaec" r="16.032"/><circle cx="424.339" cy="376.242" fill="#5d5360" r="48.097"/><circle cx="424.339" cy="376.242" fill="#eceaec" r="16.032"/><path d="m288.065 320.129h-240.484c-4.427 0-8.016-3.589-8.016-8.016v-16.032h256.516v16.032c0 4.427-3.589 8.016-8.016 8.016z" fill="#ffa95f"/><path d="m488.468 288.065c-8.854 0-16.032 7.178-16.032 16.032s7.178 16.032 16.032 16.032h16.032v-32.065h-16.032z" fill="#fff0af"/><path d="m39.565 135.758h256.516l8.016-24.048h-2.671-230.568c-6.885 0-12.989-4.383-15.191-10.906l-4.436-13.143h-27.699z" fill="#b6b1b7"/><path d="m328.145 167.823v56.113c0 8.854 7.178 16.032 16.032 16.032h112.226l-20.748-88.177h-91.478c-8.853-.001-16.032 7.177-16.032 16.032z" fill="#dbeaff"/><path d="m352.194 191.871v-40.081h-8.016c-8.854 0-16.032 7.178-16.032 16.032v56.113c0 8.854 7.178 16.032 16.032 16.032h112.226l-5.658-24.048h-74.503c-13.283 0-24.049-10.766-24.049-24.048z" fill="#c3ddff"/><path d="m119.726 352.71c-12.976 0-23.532 10.557-23.532 23.532s10.557 23.532 23.532 23.532c12.976 0 23.533-10.557 23.533-23.532s-10.557-23.532-23.533-23.532zm0 32.064c-4.705 0-8.532-3.828-8.532-8.532 0-4.705 3.828-8.532 8.532-8.532 4.705 0 8.533 3.827 8.533 8.532-.001 4.704-3.828 8.532-8.533 8.532z"/><path d="m424.339 352.71c-12.976 0-23.532 10.557-23.532 23.532s10.557 23.532 23.532 23.532 23.532-10.557 23.532-23.532-10.557-23.532-23.532-23.532zm0 32.064c-4.705 0-8.532-3.828-8.532-8.532 0-4.705 3.828-8.532 8.532-8.532s8.532 3.827 8.532 8.532c0 4.704-3.828 8.532-8.532 8.532z"/><path d="m497.951 258.653-34.925-23.284-27.024-114.854c-3.37-14.32-15.998-24.322-30.71-24.322h-88.117l2.053-6.16c.762-2.287.379-4.801-1.031-6.757s-3.674-3.115-6.084-3.115h-288.581c-2.411 0-4.675 1.159-6.084 3.115-1.41 1.956-1.793 4.47-1.031 6.757l2.225 6.675c-10.636 2.257-18.642 11.719-18.642 23.018v240.484c0 12.976 10.557 23.532 23.532 23.532h41.117c3.675 27.12 26.965 48.097 55.077 48.097s51.402-20.977 55.077-48.097h194.459c3.675 27.12 26.966 48.097 55.077 48.097s51.401-20.977 55.077-48.097h9.052c12.976 0 23.532-10.557 23.532-23.532v-75.308c0-10.572-5.252-20.385-14.049-26.249zm-.951 53.976h-8.532c-4.705 0-8.532-3.827-8.532-8.532s3.828-8.532 8.532-8.532h8.532zm-67.285-153.339 17.218 73.178h-23.111v-73.178zm-190.263 97.226v-24.564-8.532h17.064v33.097h-17.064zm-32.065 0v-17.064h17.064v17.064zm56.629-48.097h-32.064c-4.142 0-7.5 3.358-7.5 7.5v8.532h-24.564c-4.142 0-7.5 3.358-7.5 7.5v24.564h-25.081v-88.694c0-4.142-3.358-7.5-7.5-7.5h-88.178c-4.142 0-7.5 3.358-7.5 7.5v88.694h-16.548c-.285 0-.516-.231-.516-.516v-112.741h241.516v112.742c0 .285-.231.516-.516.516h-16.548v-40.597c-.001-4.142-3.359-7.5-7.501-7.5zm-184.887 48.097v-17.064h73.178v17.064zm0-49.129h73.178v17.064h-73.178zm73.178-15h-73.178v-17.065h73.178zm149.4-97.226-11.032 33.097h-245.705l-11.032-33.097zm122.632 321.678c-22.385 0-40.597-18.212-40.597-40.597s18.212-40.597 40.597-40.597 40.597 18.211 40.597 40.597c0 22.385-18.212 40.597-40.597 40.597zm64.129-48.097h-9.052c-3.675-27.12-26.965-48.097-55.077-48.097s-51.402 20.977-55.077 48.097h-194.448c-.508-3.766-1.394-7.464-2.665-11.055-1.382-3.905-5.668-5.95-9.573-4.568s-5.95 5.667-4.568 9.572c1.536 4.339 2.314 8.898 2.314 13.551 0 22.385-18.212 40.597-40.597 40.597s-40.597-18.212-40.597-40.597 18.211-40.597 40.597-40.597c7.13 0 14.14 1.872 20.271 5.414 3.587 2.071 8.174.844 10.246-2.743s.844-8.174-2.743-10.246c-8.409-4.857-18.013-7.425-27.774-7.425-28.112 0-51.401 20.977-55.077 48.097h-41.116c-4.705 0-8.532-3.828-8.532-8.532v-240.484c0-4.684 3.795-8.496 8.471-8.529l8.593 25.779v119.024c0 8.556 6.96 15.516 15.516 15.516h240.484c8.556 0 15.516-6.96 15.516-15.516v-119.024l8.594-25.782h93.117c7.717 0 14.341 5.247 16.108 12.758l4.786 20.338h-25.898c-4.142 0-7.5 3.358-7.5 7.5 0 4.143 3.358 7.5 7.5 7.5h8.535v73.178h-64.646c-4.705 0-8.532-3.828-8.532-8.532v-56.113c0-4.704 3.828-8.532 8.532-8.532h24.05c4.142 0 7.5-3.357 7.5-7.5 0-4.142-3.358-7.5-7.5-7.5h-24.05c-12.976 0-23.532 10.557-23.532 23.532v56.113c0 12.976 10.557 23.532 23.532 23.532h109.955l35.498 23.666c3.378 2.251 5.753 5.615 6.787 9.431h-7.95c-12.976 0-23.532 10.557-23.532 23.532s10.557 23.532 23.532 23.532h8.534v32.581c0 4.704-3.828 8.532-8.532 8.532z"/><path d="m296.081 288.581h-256.517c-4.142 0-7.5 3.358-7.5 7.5s3.358 7.5 7.5 7.5h256.516c4.142 0 7.5-3.358 7.5-7.5s-3.357-7.5-7.499-7.5z"/></svg>